<?xml version="1.0" encoding="iso-8859-1"?>
<!-- Generator: Adobe Illustrator 19.0.0, SVG Export Plug-In . SVG Version: 6.00 Build 0)  -->
<svg version="1.1" id="Capa_1" xmlns="http://www.w3.org/2000/svg" xmlns:xlink="http://www.w3.org/1999/xlink" x="0px" y="0px"
	 viewBox="0 0 448 448" fill="#ffffff" style="enable-background:new 0 0 448 448;" xml:space="preserve">
<g>
	<g>
		<polygon points="184,120 184,25.888 168,57.888 168,120 152,120 152,64 24,64 24,192 152,192 152,136 168,136 168,162.304 
			179.688,136 256,136 256,120 		"/>
	</g>
</g>
<g>
	<g>
		<polygon points="52.944,0 28.944,48 155.056,48 179.056,0 		"/>
	</g>
</g>
<g>
	<g>
		<polygon points="155.056,304 179.056,256 96,256 96,200 80,200 80,256 52.944,256 28.944,304 80,304 80,320 24,320 24,448 
			152,448 152,320 96,320 96,304 		"/>
	</g>
</g>
<g>
	<g>
		<polygon points="264,320 264,376 184,376 184,281.888 168,313.888 168,376 160,376 160,392 168,392 168,418.304 179.688,392 
			264,392 264,448 392,448 392,320 		"/>
	</g>
</g>
<g>
	<g>
		<polygon points="336,256 336,192 392,192 392,64 264,64 264,192 320,192 320,256 292.944,256 268.944,304 320,304 320,312 
			336,312 336,304 395.056,304 419.056,256 		"/>
	</g>
</g>
<g>
	<g>
		<polygon points="408,313.888 408,418.304 424,382.304 424,281.888 		"/>
	</g>
</g>
<g>
	<g>
		<polygon points="408,57.888 408,162.304 424,126.304 424,25.888 		"/>
	</g>
</g>
<g>
	<g>
		<polygon points="292.944,0 268.944,48 395.056,48 419.056,0 		"/>
	</g>
</g>
</svg>
