<?xml version="1.0" encoding="UTF-8"?>
<svg width="512px" height="512px" enable-background="new 0 0 497.127 497.127" version="1.1" viewBox="0 0 497.13 497.13" xml:space="preserve" xmlns="http://www.w3.org/2000/svg">
	<g fill="#fff">
		<path d="m14.444 443.02h305.69c7.982 0 14.444-6.47 14.444-14.444v-189.64c0-7.982-4.471-19.127-9.982-24.89l-85.35-89.292c-5.511-5.771-16.452-10.445-24.434-10.445h-35.245c17.086-35.888 57.534-55.258 104.6-32.644 32.319 15.534 58.615 43.594 82.968 70.824l-25.207 25.207 96.754 96.754 58.444-58.436-96.754-96.754-21.785 21.785c-39.204-43.374-86.927-91.82-147.78-86.529-36.928 3.211-59.859 28.661-69.971 59.794h-41.074c-7.982 0-18.915 4.674-24.435 10.445l-85.35 89.284c-5.508 5.771-9.979 16.915-9.979 24.889v189.64c0 7.982 6.47 14.452 14.444 14.452zm385.07-282.92c4.617 4.617 4.617 12.112 0 16.729s-12.112 4.617-16.729 0c-2.821-2.821-3.707-6.674-3.081-10.323 1.553 1.731 3.121 3.503 4.658 5.202 7.056 7.779 18.517-3.755 11.494-11.494-0.951-1.049-1.943-2.154-2.91-3.227 2.39 0.366 4.723 1.268 6.568 3.113zm-239.43 29.694c3.081 9.982 18.777 5.723 15.68-4.324-0.569-1.845-1.057-3.69-1.52-5.527 4.706 2.504 7.958 7.405 7.958 13.103 0 8.218-6.682 14.9-14.9 14.9s-14.9-6.682-14.9-14.9c0-4.666 2.195-8.787 5.568-11.518 0.618 2.795 1.285 5.575 2.114 8.266zm-132.47 41.098 85.252-89.187c1.317-1.203 5.267-2.886 6.901-3.008h35.936c-0.65 5.747-0.927 11.518-0.821 17.273-15.558 5.227-26.881 19.785-26.881 37.091 0 21.663 17.623 39.285 39.285 39.285s39.285-17.623 39.285-39.285c0-20.419-15.721-37.058-35.66-38.92-0.016-5.275 0.374-10.437 1.162-15.436h42.643c1.796 0.146 5.69 1.813 6.901 2.91l85.301 89.235c1.341 1.544 3.178 6.121 3.276 8.096v179.7h-285.81v-179.63c0.097-2.048 1.934-6.632 3.227-8.12z"/>
		<path d="m47.642 405.69h239.3c5.113 0 9.258-4.146 9.258-9.258v-85.456h-0.211c0.041-0.553 0.171-1.024 0.171-1.618 0-13.298-10.779-24.077-24.077-24.077-3.853 0-7.438 0.984-10.665 2.593-2.414-3.723-6.584-6.202-11.356-6.202-0.691 0-1.349 0.106-2.016 0.203-4.942-4.568-11.494-7.43-18.753-7.43-13.071 0-23.955 9.088-26.865 21.264-2.983-2.024-6.584-3.203-10.453-3.203-6.129 0-11.526 2.999-14.924 7.568-5.284-4.536-14.526-7.568-25.109-7.568-11.339 0-21.086 3.495-26.117 8.584-2.17-1.211-4.633-1.959-7.291-1.959-2.463 0-4.763 0.65-6.812 1.699-0.935-6.73-6.657-11.933-13.656-11.933-5.576 0-10.356 3.316-12.551 8.064-2.601-0.862-5.332-1.447-8.218-1.447-8.543 0-16.062 4.154-20.842 10.486-1.796-2.634-4.674-4.471-8.096-4.471-5.324 0-9.575 4.194-9.868 9.445h-0.122v85.447c1e-3 5.123 4.147 9.269 9.268 9.269z"/>
	</g>
</svg>
