<svg width="8" height="16" viewBox="0 0 8 16" fill="none" xmlns="http://www.w3.org/2000/svg">
<path d="M2.33123 15.8H5.55704V8.00475H7.73338L8.00005 5.2591H5.55704V3.67408C5.54274 3.577 5.55017 3.47794 5.5788 3.38413C5.60742 3.29033 5.65652 3.20415 5.72249 3.13192C5.78846 3.05968 5.86964 3.00321 5.96008 2.96663C6.05052 2.93006 6.14794 2.91431 6.24521 2.92054H7.96564V0.209541H5.59145C5.15674 0.174744 4.71971 0.234897 4.31023 0.385885C3.90075 0.536874 3.52849 0.775136 3.21891 1.08437C2.90934 1.39361 2.66975 1.76652 2.51655 2.17761C2.36334 2.58869 2.30013 3.02825 2.33123 3.4662V5.25044H0.800049V8.00475H2.33123V15.8Z" fill="#9198BB"/>
</svg>
