<svg width="44" height="44" viewBox="0 0 44 44" fill="none" xmlns="http://www.w3.org/2000/svg">
<mask id="mask0" mask-type="alpha" maskUnits="userSpaceOnUse" x="0" y="0" width="44" height="44">
<path fill-rule="evenodd" clip-rule="evenodd" d="M33.9778 0H10.0222C4.4871 0 0 4.4871 0 10.0222V33.9778C0 39.5129 4.4871 44 10.0222 44H33.9778C39.5129 44 44 39.5129 44 33.9778V10.0222C44 4.4871 39.5129 0 33.9778 0Z" fill="#CCFF00"/>
</mask>
<g mask="url(#mask0)">
<rect width="44" height="44" fill="white"/>
<path fill-rule="evenodd" clip-rule="evenodd" d="M37.5547 21.5455C37.6664 21.6753 37.7143 21.8377 37.7143 22.0162C37.7143 22.1786 37.6664 22.3409 37.5547 22.4545C36.9002 23.5747 32.0798 31.2857 21.992 31.2857C11.9362 31.2857 7.09976 23.5909 6.44533 22.4708C6.3336 22.3409 6.28571 22.1786 6.28571 22C6.28571 21.8377 6.3336 21.6753 6.42937 21.5455C7.05187 20.474 11.8723 12.7143 21.992 12.7143C32.0638 12.7143 36.9002 20.4091 37.5547 21.5455ZM27.02 29.0292C27.004 29.0414 26.988 29.0536 26.9721 29.0617C32.3512 27.3571 35.32 23.25 36.1181 21.9838C35.3041 20.7175 32.2713 16.5455 26.7965 14.8734C28.5203 16.0909 29.7813 17.9091 30.2761 20.052C30.6592 20.1331 30.9465 20.474 30.9465 20.8961C30.9465 21.3669 30.5634 21.7565 30.1006 21.7565C29.6377 21.7565 29.2546 21.3669 29.2546 20.8961C29.2546 20.6364 29.3504 20.4253 29.5259 20.263C28.8236 17.0812 26.2219 14.6299 22.9976 14.2078H22.9816C22.6624 14.1916 22.3272 14.1753 21.992 14.1753C21.6409 14.1753 21.2897 14.1916 20.9545 14.2078C19.7095 14.3701 18.5124 14.8571 17.4908 15.6039C17.427 15.6526 17.3472 15.6688 17.2674 15.6688C17.1397 15.6688 17.0279 15.6039 16.9481 15.5065C16.8204 15.3279 16.8683 15.0844 17.0439 14.9545C17.0599 14.9464 17.0718 14.9383 17.0838 14.9302C17.0958 14.9221 17.1077 14.914 17.1237 14.9058C11.6808 16.5942 8.67997 20.75 7.86592 22C8.67997 23.25 11.6488 27.3571 16.996 29.0779C15.2721 27.8117 14.0431 25.9123 13.6281 23.7045C13.3089 23.5747 13.0694 23.2662 13.0694 22.8929C13.0694 22.4221 13.4525 22.0325 13.9154 22.0325C14.3783 22.0325 14.7614 22.4221 14.7614 22.8929C14.7614 23.1851 14.6177 23.4286 14.3943 23.5909C15.0168 26.7078 17.3951 29.1429 20.4757 29.7597L20.4757 29.7597C20.9705 29.7922 21.4653 29.8247 21.992 29.8247C22.5188 29.8247 23.0136 29.8084 23.5084 29.7597C24.6257 29.5325 25.6792 29.0617 26.6049 28.3636C26.7805 28.2338 27.0199 28.2662 27.1476 28.4448C27.2753 28.6234 27.2434 28.8669 27.0678 28.9968C27.0519 29.0049 27.0359 29.017 27.02 29.0292ZM15.1125 22.0325C15.1125 18.1688 18.2091 15.0357 21.992 15.0357C25.7909 15.0357 28.8715 18.1851 28.8715 22.0325C28.8715 25.8961 25.7909 29.0292 21.992 29.0292C18.1931 29.0292 15.1125 25.8799 15.1125 22.0325ZM15.8787 22.0325C15.8787 25.4578 18.6241 28.25 21.992 28.25C25.3599 28.25 28.1053 25.4578 28.1053 22.0325C28.0894 18.6071 25.3599 15.8149 21.992 15.8149C18.6241 15.8149 15.8787 18.6071 15.8787 22.0325ZM16.3256 16.0584C16.182 15.9123 15.9266 15.9123 15.7829 16.0747C14.5698 17.3734 13.8037 18.9968 13.5483 20.75C13.5323 20.9773 13.676 21.1721 13.8835 21.2045H13.9473C14.1389 21.2045 14.2985 21.0584 14.3144 20.8636C14.5379 19.2565 15.2402 17.7955 16.3416 16.6104C16.4852 16.4643 16.4852 16.2045 16.3256 16.0584ZM30.1165 22.6007C29.909 22.5682 29.7175 22.7305 29.6855 22.9416C29.494 24.5812 28.8236 26.0909 27.7223 27.3247C27.5786 27.487 27.5946 27.7305 27.7542 27.8766C27.818 27.9416 27.9138 27.974 28.0096 27.974C28.1053 27.974 28.2171 27.9416 28.2969 27.8604C29.494 26.513 30.2442 24.8409 30.4517 23.039C30.4836 22.8279 30.324 22.6331 30.1165 22.6007ZM24.2426 20.1007C24.2426 18.8669 23.253 17.8604 22.0399 17.8604C20.8268 17.8604 19.8372 18.8669 19.8372 20.1007C19.8372 20.8799 20.2203 21.5617 20.8268 21.9675L20.2203 25.7338C20.1724 26.026 20.3799 26.2695 20.6672 26.2695H23.4126C23.7159 26.2695 23.9074 26.026 23.8595 25.7338L23.253 21.9675C23.8436 21.5617 24.2426 20.8799 24.2426 20.1007Z" fill="url(#paint0_linear)"/>
</g>
<defs>
<linearGradient id="paint0_linear" x1="6.28571" y1="22" x2="37.7143" y2="22" gradientUnits="userSpaceOnUse">
<stop stop-color="#122283"/>
<stop offset="1" stop-color="#4F299B"/>
</linearGradient>
</defs>
</svg>
