<svg width="16" height="13" viewBox="0 0 16 13" fill="none" xmlns="http://www.w3.org/2000/svg">
<path fill-rule="evenodd" clip-rule="evenodd" d="M10.533 1.11416e-07L15.0949 2.30851C15.1145 2.31355 15.1324 2.32398 15.1465 2.33865C15.1607 2.35333 15.1706 2.37167 15.1751 2.39168C15.1797 2.41169 15.1787 2.43259 15.1723 2.45207C15.1659 2.47156 15.1544 2.48888 15.1389 2.50213L10.6503 9.91171L7.51121 4.69894L10.3276 0.0744684C10.3431 0.0514836 10.3639 0.0326877 10.3882 0.0197109C10.4125 0.00673416 10.4395 -3.16651e-05 10.467 1.11416e-07H10.533ZM6.02234 8.0649V3.06808L10.401 10.284L6.02234 8.0649ZM10.7823 10.4777L14.8016 12.5181C14.8427 12.5458 14.8909 12.5609 14.9404 12.5615C14.9898 12.5621 15.0383 12.5482 15.0801 12.5214C15.1219 12.4947 15.1553 12.4563 15.1761 12.4108C15.197 12.3653 15.2044 12.3146 15.1976 12.2649V3.18727L10.7823 10.4777ZM1.32834 0.201059L5.53826 2.35319C5.5537 2.36118 5.56707 2.37277 5.57727 2.38701C5.58746 2.40124 5.5942 2.41772 5.59693 2.4351V12.3096C5.59693 12.4883 5.50159 12.6 5.36223 12.6C5.30578 12.5979 5.25056 12.5826 5.20088 12.5553L1.0643 10.4553C0.987526 10.4105 0.923103 10.3467 0.876962 10.2699C0.830822 10.1931 0.804446 10.1058 0.800262 10.016V0.260634C0.798012 0.209674 0.813602 0.15955 0.844268 0.119144C0.857879 0.102986 0.874739 0.0899732 0.893715 0.0809819C0.912692 0.0719905 0.933344 0.0672286 0.954284 0.0670165C0.990469 0.058442 1.02811 0.058442 1.0643 0.0670165L1.32834 0.201059Z" fill="#9198BB"/>
</svg>
