<svg width="16" height="14" viewBox="0 0 16 14" fill="none" xmlns="http://www.w3.org/2000/svg">
<path d="M15.7998 6.49564C15.7977 5.95859 15.5929 5.44415 15.2298 5.0644C14.8668 4.68464 14.375 4.47034 13.8617 4.46817C13.4402 4.46753 13.0303 4.61238 12.6956 4.88025C11.4973 4.06162 10.1143 3.58696 8.68533 3.50388L9.4732 1.50114L11.8368 2.07806C11.8726 2.43353 12.0273 2.76434 12.2736 3.01212C12.5199 3.2599 12.8419 3.40872 13.1828 3.43231C13.5238 3.45591 13.8617 3.35277 14.137 3.14109C14.4124 2.92941 14.6074 2.6228 14.6876 2.27537C14.7679 1.92793 14.7283 1.56201 14.5757 1.24217C14.4232 0.922322 14.1676 0.66912 13.854 0.527242C13.5403 0.385364 13.1889 0.363928 12.8616 0.466719C12.5344 0.569509 12.2523 0.789918 12.0653 1.08905L9.31563 0.413227C9.20393 0.386137 9.08667 0.401018 8.9844 0.455263C8.88213 0.509507 8.80136 0.599659 8.75624 0.70993L7.63746 3.47916C6.08847 3.50433 4.57689 3.98098 3.27265 4.85553C2.9441 4.60221 2.54626 4.46638 2.13812 4.46817C1.62472 4.47034 1.13295 4.68464 0.769918 5.0644C0.406891 5.44415 0.202026 5.95859 0.199951 6.49564C0.199971 6.85344 0.29125 7.20476 0.46437 7.51335C0.637491 7.82194 0.886184 8.07663 1.18479 8.25113C1.18479 8.34179 1.18479 8.43245 1.18479 8.52311C1.16903 11.3335 4.2181 13.6 7.99988 13.6C11.7817 13.6 14.7992 11.3253 14.7992 8.52311C14.7992 8.44069 14.7992 8.36651 14.7992 8.2841C15.1055 8.10907 15.3604 7.85014 15.5367 7.53507C15.713 7.22 15.8039 6.86067 15.7998 6.49564ZM13.3023 1.41872C13.3989 1.41872 13.4933 1.44869 13.5736 1.50484C13.654 1.56099 13.7166 1.64079 13.7536 1.73416C13.7905 1.82753 13.8002 1.93028 13.7814 2.0294C13.7625 2.12852 13.716 2.21957 13.6477 2.29103C13.5794 2.3625 13.4923 2.41116 13.3976 2.43088C13.3028 2.4506 13.2046 2.44048 13.1153 2.4018C13.0261 2.36312 12.9498 2.29763 12.8961 2.2136C12.8424 2.12957 12.8138 2.03077 12.8138 1.92971C12.8138 1.8626 12.8264 1.79616 12.851 1.73416C12.8755 1.67217 12.9115 1.61584 12.9569 1.56839C13.0022 1.52094 13.0561 1.4833 13.1153 1.45762C13.1746 1.43194 13.2381 1.41872 13.3023 1.41872ZM4.56476 8.01212C4.56476 7.81162 4.6216 7.61563 4.72808 7.44892C4.83457 7.28221 4.98592 7.15228 5.16299 7.07555C5.34007 6.99882 5.53492 6.97875 5.7229 7.01786C5.91089 7.05698 6.08356 7.15353 6.21909 7.2953C6.35462 7.43707 6.44691 7.6177 6.48431 7.81435C6.5217 8.01099 6.50251 8.21482 6.42916 8.40006C6.35581 8.58529 6.2316 8.74362 6.07224 8.85501C5.91287 8.9664 5.72551 9.02585 5.53384 9.02585C5.27819 9.02586 5.03288 8.92019 4.85137 8.73186C4.66986 8.54352 4.56684 8.28779 4.56476 8.02036V8.01212ZM10.2059 11.383C9.55394 11.877 8.76947 12.143 7.96443 12.143C7.15939 12.143 6.37492 11.877 5.72293 11.383C5.63392 11.2987 5.57773 11.183 5.5651 11.058C5.55246 10.9331 5.58427 10.8077 5.65445 10.7057C5.72462 10.6037 5.82825 10.5324 5.94552 10.5053C6.0628 10.4782 6.1855 10.4973 6.2902 10.5588C6.77659 10.9293 7.36276 11.1289 7.96443 11.1289C8.5661 11.1289 9.15227 10.9293 9.63866 10.5588C9.74336 10.4973 9.86606 10.4782 9.98334 10.5053C10.1006 10.5324 10.2042 10.6037 10.2744 10.7057C10.3446 10.8077 10.3764 10.9331 10.3638 11.058C10.3511 11.183 10.2949 11.2987 10.2059 11.383ZM10.3635 9.0341C10.1718 9.0341 9.98447 8.97464 9.82511 8.86325C9.66574 8.75186 9.54153 8.59354 9.46818 8.4083C9.39484 8.22306 9.37565 8.01924 9.41304 7.82259C9.45043 7.62595 9.54273 7.44532 9.67826 7.30354C9.81378 7.16177 9.98646 7.06522 10.1744 7.0261C10.3624 6.98699 10.5573 7.00706 10.7344 7.08379C10.9114 7.16052 11.0628 7.29045 11.1693 7.45716C11.2757 7.62387 11.3326 7.81986 11.3326 8.02036C11.3326 8.28922 11.2305 8.54707 11.0487 8.73718C10.867 8.92729 10.6205 9.0341 10.3635 9.0341Z" fill="#9198BB"/>
</svg>
