<svg width="17" height="23" viewBox="0 0 17 23" fill="none" xmlns="http://www.w3.org/2000/svg">
<path d="M13.192 0.627998L15.13 0.729999C15.5833 0.775332 15.878 0.933998 16.014 1.206C16.15 1.50067 16.0933 1.84067 15.844 2.226L10.914 11.712L16.014 21.674C16.15 21.878 16.218 22.082 16.218 22.286C16.218 22.49 16.15 22.66 16.014 22.796C15.878 22.932 15.6967 23 15.47 23H12.92C12.4893 23 12.104 22.7167 11.764 22.15L8.5 15.078L5.202 22.15C4.93 22.7167 4.47667 23 3.842 23H1.7C1.26933 23 1.00867 22.8527 0.918 22.558C0.804667 22.2407 0.85 21.9007 1.054 21.538L6.154 11.644L1.258 2.226C1.00867 1.84067 0.952 1.478 1.088 1.138C1.224 0.797999 1.496 0.627998 1.904 0.627998H3.876C4.51067 0.627998 4.98667 0.933998 5.304 1.546L8.568 8.278L11.764 1.614C12.0813 0.911333 12.5573 0.582665 13.192 0.627998Z" fill="white"/>
</svg>
