<svg width="13" height="18" viewBox="0 0 13 18" fill="none" xmlns="http://www.w3.org/2000/svg">
<path d="M12.9669 7.354C13.2294 5.58886 11.8943 4.63976 10.0701 4.00646L10.662 1.61476L9.21737 1.25264L8.64052 3.58118C8.26097 3.48517 7.87139 3.39591 7.48264 3.30664L8.06367 0.962941L6.61903 0.599976L6.02713 2.99083C5.71279 2.91841 5.40347 2.84767 5.10417 2.77187L5.10584 2.76429L3.11278 2.26322L2.72821 3.81782C2.72821 3.81782 3.80082 4.06541 3.77825 4.08057C4.36346 4.22795 4.4688 4.61786 4.45124 4.92777L3.77741 7.65212C3.81754 7.66222 3.86937 7.67738 3.92789 7.70012L3.7749 7.66223L2.8302 11.4788C2.75831 11.6574 2.57689 11.926 2.16724 11.8241C2.18229 11.8452 1.11721 11.5605 1.11721 11.5605L0.399902 13.2263L2.28094 13.6987C2.6304 13.7872 2.97316 13.8798 3.31008 13.9665L2.71233 16.3852L4.15613 16.7473L4.74803 14.3556C5.14263 14.4626 5.52552 14.5619 5.90006 14.6563L5.30983 17.0379L6.75447 17.4L7.35222 14.9864C9.8168 15.4563 11.6694 15.2668 12.4494 13.0217C13.0781 11.2144 12.4185 10.171 11.1218 9.49137C12.0665 9.27241 12.7771 8.6467 12.9669 7.354ZM9.66464 12.0178C9.21905 13.8259 6.19684 12.8482 5.21703 12.6031L6.01125 9.39873C6.99106 9.64548 10.132 10.1331 9.66464 12.0178ZM10.1119 7.32789C9.70477 8.97261 7.19003 8.13635 6.37492 7.93171L7.09389 5.0263C7.90901 5.23094 10.5366 5.61244 10.1119 7.32789Z" fill="#9198BB"/>
</svg>