<svg width="26" height="20" viewBox="0 0 26 20" fill="none" xmlns="http://www.w3.org/2000/svg">
<path d="M0.571289 12.8572C0.571289 13.4094 1.019 13.8572 1.57129 13.8572C2.12357 13.8572 2.57129 13.4094 2.57129 12.8572L0.571289 12.8572ZM12.9999 1.42859L12.9999 0.428589L12.9999 1.42859ZM23.4284 12.8572C23.4284 13.4094 23.8761 13.8572 24.4284 13.8572C24.9807 13.8572 25.4284 13.4094 25.4284 12.8572L23.4284 12.8572ZM13.9999 10C13.9999 9.44773 13.5521 9.00002 12.9999 9.00002C12.4476 9.00002 11.9999 9.44773 11.9999 10L13.9999 10ZM12.9999 18.5714L12.2928 19.2786C12.6833 19.6691 13.3164 19.6691 13.707 19.2786L12.9999 18.5714ZM10.1355 14.2929C9.74501 13.9024 9.11185 13.9024 8.72132 14.2929C8.3308 14.6834 8.3308 15.3166 8.72132 15.7071L10.1355 14.2929ZM17.2784 15.7071C17.6689 15.3166 17.6689 14.6834 17.2784 14.2929C16.8879 13.9024 16.2547 13.9024 15.8642 14.2929L17.2784 15.7071ZM2.57129 12.8572C2.57129 7.09762 7.24032 2.42859 12.9999 2.42859L12.9999 0.428589C6.13575 0.428589 0.571288 5.99305 0.571289 12.8572L2.57129 12.8572ZM12.9999 2.42859C18.7594 2.42859 23.4284 7.09762 23.4284 12.8572L25.4284 12.8572C25.4284 5.99305 19.864 0.428588 12.9999 0.428589L12.9999 2.42859ZM11.9999 10L11.9999 18.5714L13.9999 18.5714L13.9999 10L11.9999 10ZM8.72132 15.7071L12.2928 19.2786L13.707 17.8643L10.1355 14.2929L8.72132 15.7071ZM13.707 19.2786L17.2784 15.7071L15.8642 14.2929L12.2928 17.8643L13.707 19.2786Z" fill="#F7931A"/>
</svg>
