<?xml version="1.0" encoding="UTF-8"?>
<svg enable-background="new 0 0 512 512" version="1.1" viewBox="0 0 512 512" xml:space="preserve" xmlns="http://www.w3.org/2000/svg">
		<g fill="#fff">
			<path d="m203 202.67c0-19.233 7.611-28.058 18.145-40.271 7.214-8.365 6.281-20.994-2.083-28.208-8.366-7.214-20.994-6.281-28.208 2.083-12.409 14.388-27.854 32.295-27.854 66.396s15.445 52.008 27.855 66.397c10.534 12.213 18.145 21.038 18.145 40.271 0 19.232-7.61 28.056-18.144 40.268-7.214 8.365-6.282 20.994 2.082 28.208 8.377 7.225 21.004 6.269 28.208-2.082 12.41-14.389 27.854-32.295 27.854-66.394 0-34.1-15.444-52.007-27.854-66.396-10.535-12.213-18.146-21.038-18.146-40.272z"/>
			<path d="m303 202.67c0-19.233 7.611-28.058 18.146-40.271 7.214-8.364 6.281-20.993-2.083-28.208-8.366-7.215-20.994-6.281-28.208 2.083-12.41 14.388-27.855 32.295-27.855 66.396s15.445 52.008 27.855 66.397c10.534 12.213 18.145 21.038 18.145 40.271 0 19.232-7.61 28.056-18.145 40.268-7.214 8.364-6.282 20.993 2.082 28.208 8.384 7.23 21.01 6.264 28.209-2.082 12.41-14.388 27.854-32.294 27.854-66.394 0-34.101-15.444-52.008-27.854-66.396-10.535-12.213-18.146-21.038-18.146-40.272z"/>
			<path d="m256 0c-141.48 0-256 114.5-256 256 0 141.48 114.5 256 256 256 141.48 0 256-114.5 256-256 0-141.48-114.5-256-256-256zm0 472c-119.38 0-216-96.607-216-216 0-119.38 96.607-216 216-216 119.38 0 216 96.607 216 216 0 119.38-96.607 216-216 216z"/>
		</g>
</svg>
