<svg width="16" height="16" viewBox="0 0 16 16" fill="none" xmlns="http://www.w3.org/2000/svg">
<path d="M14.7539 4.17357C14.076 2.97062 13.1029 1.97039 11.9312 1.27223C10.7397 0.556686 9.38089 0.186212 7.99996 0.200341C6.61903 0.186212 5.26027 0.556686 4.0687 1.27223C2.89678 1.97009 1.92362 2.9704 1.24605 4.17357C0.547977 5.39497 0.186547 6.78773 0.200331 8.20321C0.192372 9.89341 0.722367 11.5402 1.70994 12.8937C2.65228 14.2472 3.9907 15.2577 5.53113 15.7789C5.60002 15.8009 5.67299 15.8057 5.74407 15.7931C5.81514 15.7805 5.88228 15.7508 5.93998 15.7064C5.98302 15.667 6.01724 15.6185 6.04031 15.5642C6.06338 15.51 6.07475 15.4513 6.07364 15.3921C6.07364 15.3921 6.07364 15.1826 6.07364 14.8279C6.07364 14.4733 6.07364 14.1671 6.07364 13.9011L5.83777 13.9414C5.6495 13.96 5.45993 13.96 5.27166 13.9414C5.03423 13.9375 4.79753 13.9132 4.56404 13.8689C4.31464 13.8222 4.07996 13.7143 3.88 13.5546C3.67078 13.3941 3.51441 13.172 3.43183 12.9179L3.32962 12.6761C3.2435 12.4861 3.13526 12.3075 3.00725 12.1442C2.89348 11.9783 2.74247 11.8429 2.56695 11.7493L2.49619 11.7412C2.44688 11.7038 2.40202 11.6605 2.36253 11.6123C2.32373 11.5694 2.29187 11.5204 2.26818 11.4672C2.26818 11.4189 2.26818 11.3786 2.31535 11.3463C2.40746 11.3077 2.50697 11.2912 2.60627 11.298H2.81069C2.9924 11.3477 3.16319 11.4325 3.31389 11.5478C3.51607 11.6879 3.68528 11.8723 3.80923 12.0878C3.944 12.3489 4.13819 12.5728 4.37533 12.7406C4.57097 12.8829 4.80383 12.9615 5.04365 12.9663C5.24285 12.9819 5.44308 12.9765 5.6412 12.9501C5.79857 12.9177 5.95164 12.8663 6.09723 12.797C6.1301 12.39 6.30613 12.009 6.59257 11.7251C6.24252 11.6905 5.89557 11.6285 5.55471 11.5398C5.22235 11.4469 4.90271 11.3115 4.60335 11.1368C4.30056 10.9592 4.03368 10.724 3.81709 10.4437C3.5747 10.1151 3.39345 9.74355 3.28244 9.34763C3.1371 8.84016 3.06817 8.31292 3.07802 7.78413C3.05726 6.99177 3.33941 6.22247 3.86427 5.64036C3.61544 4.95171 3.64086 4.19037 3.93503 3.52077C4.23276 3.47044 4.53839 3.51842 4.80777 3.65778C5.09479 3.76796 5.37337 3.89996 5.6412 4.05268L6.07364 4.33476C7.3596 3.96773 8.71895 3.96773 10.0049 4.33476L10.3587 4.08492C10.6557 3.90168 10.969 3.74786 11.2944 3.62554C11.5392 3.50717 11.8134 3.46783 12.0806 3.51271C12.3799 4.18062 12.4082 4.94302 12.1592 5.6323C12.6848 6.21395 12.9671 6.98357 12.9455 7.77607C12.9546 8.30482 12.8857 8.83195 12.7411 9.33957C12.6329 9.73661 12.4514 10.1087 12.2064 10.4356C11.9881 10.7142 11.7215 10.9492 11.4202 11.1287C11.1207 11.3031 10.8011 11.4385 10.4688 11.5317C10.1279 11.6204 9.78099 11.6824 9.43094 11.7171C9.61872 11.9084 9.76323 12.1396 9.85426 12.3945C9.94528 12.6493 9.98061 12.9215 9.95773 13.1919V15.384C9.95563 15.4426 9.96577 15.5009 9.98747 15.5551C10.0092 15.6094 10.0419 15.6582 10.0835 15.6984C10.1397 15.7426 10.2055 15.7724 10.2754 15.785C10.3452 15.7976 10.4169 15.7928 10.4845 15.7709C12.0181 15.2488 13.3505 14.2414 14.29 12.8937C15.2781 11.5404 15.8081 9.8935 15.7996 8.20321C15.813 6.78778 15.4516 5.39512 14.7539 4.17357Z" fill="#9198BB"/>
</svg>
