<?xml version="1.0" encoding="iso-8859-1"?>
<!-- Generator: Adobe Illustrator 19.0.0, SVG Export Plug-In . SVG Version: 6.00 Build 0)  -->
<svg version="1.1" id="Capa_1" xmlns="http://www.w3.org/2000/svg" xmlns:xlink="http://www.w3.org/1999/xlink" x="0px" y="0px"
	 viewBox="0 0 512 512" fill="#ffffff" style="enable-background:new 0 0 512 512;" xml:space="preserve">
<g>
	<g>
		<path d="M306.445,228.261l-78.121,78.12l187.088,14.39c13.779-23.61,25.955-51.764,36.616-81.315L306.445,228.261z"/>
	</g>
</g>
<g>
	<g>
		<path d="M274.043,61.472c-29.551,10.66-57.704,22.839-81.312,36.616l14.394,187.07l78.121-78.12L274.043,61.472z"/>
	</g>
</g>
<g>
	<g>
		<path d="M303.369,51.486l9.824,127.604L490.789,0C469.963,3.532,382.786,26.021,303.369,51.486z"/>
	</g>
</g>
<g>
	<g>
		<path d="M334.393,200.312l127.621,9.818C487.478,130.71,508.47,42.037,512,21.211L334.393,200.312z"/>
	</g>
</g>
<g>
	<g>
		<path d="M200.373,334.33l-68.202,68.204c25.649,20.299,57.486,30.829,91.88,30.829c54.419,0,114.185-24.741,161.528-72.1
			c3.519-3.519,6.872-7.744,10.237-11.904L200.373,334.33z"/>
	</g>
</g>
<g>
	<g>
		<path d="M164.145,117.68c-4.158,3.365-8.383,6.716-11.9,10.234c-77.329,77.329-94.281,187.65-41.754,253.878l68.685-68.685
			L164.145,117.68z"/>
	</g>
</g>
<g>
	<g>
		<path d="M99.203,414.291c-3.58-3.58-6.764-7.423-9.944-11.266L0,490.789L21.211,512l89.713-88.219
			C107.046,420.575,102.774,417.863,99.203,414.291z"/>
	</g>
</g>
<g>
</g>
<g>
</g>
<g>
</g>
<g>
</g>
<g>
</g>
<g>
</g>
<g>
</g>
<g>
</g>
<g>
</g>
<g>
</g>
<g>
</g>
<g>
</g>
<g>
</g>
<g>
</g>
<g>
</g>
</svg>
