<svg width="44" height="44" viewBox="0 0 44 44" fill="none" xmlns="http://www.w3.org/2000/svg">
<mask id="mask0" mask-type="alpha" maskUnits="userSpaceOnUse" x="0" y="0" width="44" height="44">
<path fill-rule="evenodd" clip-rule="evenodd" d="M33.9778 0H10.0222C4.48711 0 0 4.4871 0 10.0222V33.9778C0 39.5129 4.48711 44 10.0222 44H33.9778C39.5129 44 44 39.5129 44 33.9778V10.0222C44 4.4871 39.5129 0 33.9778 0Z" fill="#CCFF00"/>
</mask>
<g mask="url(#mask0)">
<rect y="44" width="44" height="44" transform="rotate(-90 0 44)" fill="url(#paint0_linear)"/>
<path fill-rule="evenodd" clip-rule="evenodd" d="M35.9992 21.5909C36.0998 21.7078 36.1429 21.8539 36.1429 22.0146C36.1429 22.1607 36.0998 22.3068 35.9992 22.4091C35.4102 23.4172 31.0718 30.3571 21.9928 30.3571C12.9425 30.3571 8.58979 23.4318 8.0008 22.4237C7.90024 22.3068 7.85715 22.1607 7.85715 22C7.85715 21.8539 7.90024 21.7078 7.98644 21.5909C8.54669 20.6266 12.8851 13.6429 21.9928 13.6429C31.0575 13.6429 35.4102 20.5682 35.9992 21.5909ZM26.518 28.3263C26.5036 28.3373 26.4892 28.3482 26.4749 28.3555C31.316 26.8214 33.988 23.125 34.7063 21.9854C33.9737 20.8458 31.2442 17.0909 26.3168 15.586C27.8683 16.6818 29.0032 18.3182 29.4485 20.2468C29.7933 20.3198 30.0519 20.6266 30.0519 21.0065C30.0519 21.4302 29.7071 21.7808 29.2905 21.7808C28.8739 21.7808 28.5291 21.4302 28.5291 21.0065C28.5291 20.7727 28.6153 20.5828 28.7733 20.4367C28.1413 17.5731 25.7997 15.3669 22.8978 14.987H22.8835C22.5962 14.9724 22.2945 14.9578 21.9928 14.9578C21.6768 14.9578 21.3607 14.9724 21.0591 14.987C19.9386 15.1331 18.8611 15.5714 17.9417 16.2435C17.8843 16.2873 17.8125 16.3019 17.7406 16.3019C17.6257 16.3019 17.5251 16.2435 17.4533 16.1558C17.3384 15.9951 17.3815 15.776 17.5395 15.6591C17.5539 15.6518 17.5646 15.6445 17.5754 15.6372C17.5862 15.6299 17.597 15.6226 17.6113 15.6153C12.7127 17.1347 10.012 20.875 9.27933 22C10.012 23.125 12.684 26.8214 17.4964 28.3701C15.9449 27.2305 14.8388 25.5211 14.4653 23.5341C14.178 23.4172 13.9625 23.1396 13.9625 22.8036C13.9625 22.3799 14.3073 22.0292 14.7239 22.0292C15.1405 22.0292 15.4852 22.3799 15.4852 22.8036C15.4852 23.0666 15.3559 23.2857 15.1548 23.4318C15.7151 26.237 17.8556 28.4286 20.6281 28.9838C21.0734 29.013 21.5188 29.0422 21.9928 29.0422C22.4669 29.0422 22.9122 29.0276 23.3575 28.9838C24.3631 28.7792 25.3113 28.3555 26.1445 27.7273C26.3025 27.6104 26.518 27.6396 26.6329 27.8003C26.7478 27.961 26.7191 28.1802 26.5611 28.2971C26.5467 28.3044 26.5323 28.3153 26.518 28.3263ZM15.8013 22.0292C15.8013 18.5519 18.5882 15.7321 21.9928 15.7321C25.4118 15.7321 28.1844 18.5666 28.1844 22.0292C28.1844 25.5065 25.4118 28.3263 21.9928 28.3263C18.5738 28.3263 15.8013 25.4919 15.8013 22.0292ZM16.4908 22.0292C16.4908 25.112 18.9617 27.625 21.9928 27.625C25.0239 27.625 27.4948 25.112 27.4948 22.0292C27.4805 18.9464 25.0239 16.4334 21.9928 16.4334C18.9617 16.4334 16.4908 18.9464 16.4908 22.0292ZM16.8931 16.6526C16.7638 16.5211 16.5339 16.5211 16.4046 16.6672C15.3128 17.836 14.6233 19.2971 14.3935 20.875C14.3791 21.0795 14.5084 21.2549 14.6951 21.2841H14.7526C14.925 21.2841 15.0686 21.1526 15.083 20.9773C15.2841 19.5308 15.9162 18.2159 16.9074 17.1494C17.0367 17.0179 17.0367 16.7841 16.8931 16.6526ZM29.3049 22.5406C29.1181 22.5114 28.9457 22.6575 28.917 22.8474C28.7446 24.3231 28.1413 25.6818 27.15 26.7922C27.0207 26.9383 27.0351 27.1575 27.1788 27.289C27.2362 27.3474 27.3224 27.3766 27.4086 27.3766C27.4948 27.3766 27.5954 27.3474 27.6672 27.2744C28.7446 26.0617 29.4198 24.5568 29.6065 22.9351C29.6353 22.7451 29.4916 22.5698 29.3049 22.5406ZM24.0184 20.2906C24.0184 19.1802 23.1277 18.2744 22.0359 18.2744C20.9441 18.2744 20.0535 19.1802 20.0535 20.2906C20.0535 20.9919 20.3983 21.6055 20.9441 21.9708L20.3983 25.3604C20.3552 25.6234 20.5419 25.8425 20.8005 25.8425H23.2714C23.5443 25.8425 23.7167 25.6234 23.6736 25.3604L23.1277 21.9708C23.6592 21.6055 24.0184 20.9919 24.0184 20.2906Z" fill="white"/>
</g>
<defs>
<linearGradient id="paint0_linear" x1="0" y1="66" x2="44" y2="66" gradientUnits="userSpaceOnUse">
<stop stop-color="#122283"/>
<stop offset="1" stop-color="#4F299B"/>
</linearGradient>
</defs>
</svg>
