<?xml version="1.0" encoding="utf-8"?>
<!-- Generator: Adobe Illustrator 21.0.2, SVG Export Plug-In . SVG Version: 6.00 Build 0)  -->
<svg version="1.1" id="Layer_1" xmlns="http://www.w3.org/2000/svg" xmlns:xlink="http://www.w3.org/1999/xlink" x="0px" y="0px"
	 viewBox="0 0 1000 200" style="enable-background:new 0 0 1000 200;" xml:space="preserve">
<style type="text/css">
	.st0{fill:#8AE3FF;}
	.st1{fill:url(#SVGID_1_);}
	.st2{fill:url(#SVGID_2_);}
	.st3{fill:url(#SVGID_3_);}
	.st4{fill:url(#SVGID_4_);}
	.st5{fill:url(#SVGID_5_);}
	.st6{fill:url(#SVGID_6_);}
	.st7{fill:url(#SVGID_7_);}
	.st8{fill:url(#SVGID_8_);}
	.st9{fill:url(#SVGID_9_);}
	.st10{fill:url(#SVGID_10_);}
	.st11{fill:url(#SVGID_11_);}
	.st12{fill:url(#SVGID_12_);}
	.st13{fill:url(#SVGID_13_);}
	.st14{fill:url(#SVGID_14_);}
</style>
<g>
	<path class="st0" d="M338.1,109.5h-40.9v42.1c0,1-0.3,1.8-1,2.4c-0.7,0.6-1.5,0.9-2.3,0.9H286c-1,0-1.8-0.3-2.5-1
		c-0.7-0.7-1-1.5-1-2.3V59.9c0-6.1,4.3-12.7,13-19.6c8.6-7,16-10.4,22.2-10.4c6.1,0,13.5,3.5,22.2,10.4c8.6,6.9,13,13.5,13,19.6
		v91.7c0,0.9-0.3,1.7-1,2.3c-0.7,0.7-1.5,1-2.5,1h-7.7c-0.9,0-1.7-0.3-2.3-1c-0.7-0.7-1-1.5-1-2.3V109.5z M297.1,61.8v34.8h40.9
		V61.8c0-3.6-2.5-7.6-7.5-11.8c-5-4.3-9.3-6.4-13-6.4c-3.5,0-7.8,2.1-12.9,6.4C299.7,54.2,297.1,58.2,297.1,61.8z"/>
	<path class="st0" d="M425.8,151.6V86.8c0-3-2-6.1-5.9-9.3c-3.9-3.2-7.2-4.8-9.9-4.8c-2.6,0-5.9,1.6-9.9,4.8
		c-3.9,3.2-5.9,6.3-5.9,9.3v64.8c0,1-0.3,1.8-0.9,2.4c-0.6,0.6-1.4,0.9-2.4,0.9h-7.5c-2.3,0-3.4-1.1-3.4-3.4V84.7
		c0-5.4,3.6-10.9,10.9-16.6c7.3-5.7,13.6-8.5,19-8.5c3.5,0,7.5,1.4,11.9,4.2c4.4,2.8,8.2,6,11.2,9.5c3-3.5,6.8-6.7,11.3-9.5
		c4.5-2.8,8.5-4.2,11.8-4.2c5.5,0,11.9,2.8,19.2,8.5c7.3,5.7,10.9,11.2,10.9,16.6v66.9c0,1-0.3,1.8-1,2.4c-0.7,0.6-1.5,0.9-2.3,0.9
		h-7.5c-2.3,0-3.4-1.1-3.4-3.4V86.8c0-3-2-6.1-5.9-9.3c-3.9-3.2-7.3-4.8-10.1-4.8c-2.6,0-5.9,1.6-9.9,4.8c-3.9,3.2-5.9,6.3-5.9,9.3
		v64.8c0,2.3-1.1,3.4-3.4,3.4h-7.5c-1,0-1.8-0.3-2.4-0.9C426.1,153.4,425.8,152.6,425.8,151.6z"/>
	<path class="st0" d="M526.7,26.5v42.8c2.4-2.6,5.4-4.9,9-6.9c3.6-1.9,6.9-2.9,10-2.9c5.3,0,11.5,2.8,18.8,8.5
		c7.3,5.7,10.9,11.4,10.9,17.2v45.3c0,5.6-3.8,11.4-11.5,17.2c-7.6,5.8-14.3,8.7-20.1,8.7c-5.9,0-12.6-2.9-20.1-8.6
		c-7.5-5.8-11.3-11.5-11.3-17.1V26.5c0-1,0.3-1.8,0.9-2.4c0.6-0.6,1.4-0.9,2.4-0.9h7.5c1,0,1.8,0.3,2.4,0.9
		C526.4,24.7,526.7,25.5,526.7,26.5z M561,87.3c0-3.1-2.1-6.4-6.2-9.7c-4.1-3.3-7.8-5-10.9-5c-3,0-6.6,1.7-10.9,5
		c-4.3,3.3-6.4,6.5-6.4,9.5v41.5c0,3,2,6.2,6.1,9.6c4.1,3.4,7.7,5.1,11,5.1c3.3,0,6.9-1.7,11.1-5c4.1-3.3,6.2-6.5,6.2-9.7V87.3z"/>
	<path class="st0" d="M641.6,65.5l-0.9,5.6c-0.4,2-1.8,2.8-4.3,2.4c-2.5-0.5-4.6-0.8-6.4-0.8c-2.6,0-5.9,1.7-9.9,5.2
		c-3.9,3.4-5.9,6.6-5.9,9.5v64.1c0,2.3-1.1,3.4-3.4,3.4h-7.5c-1,0-1.8-0.3-2.4-0.9c-0.6-0.6-0.9-1.4-0.9-2.4V85.5
		c0-5.5,3.6-11.2,10.7-17c7.1-5.8,13.4-8.7,18.8-8.7c3.4,0,6.6,0.5,9.6,1.5C641.3,61.8,642.1,63.3,641.6,65.5z"/>
	<path class="st0" d="M667.3,68.3c7.6-5.8,14.2-8.7,20-8.7c5.8,0,12.4,2.9,20,8.6c7.6,5.8,11.4,11.6,11.4,17.5v44.7
		c0,5.6-3.8,11.4-11.5,17.3c-7.6,5.9-14.3,8.8-19.9,8.8c-5.8,0-12.4-2.9-20-8.7c-7.6-5.8-11.4-11.6-11.4-17.4V85.6
		C655.9,79.9,659.7,74.1,667.3,68.3z M704.4,128.5V87.5c0-3.3-2.1-6.5-6.2-9.9c-4.1-3.3-7.8-5-10.9-5c-3.1,0-6.8,1.7-10.9,5
		c-4.1,3.3-6.2,6.6-6.2,9.9v40.9c0,3.3,2,6.5,6.1,9.9c4.1,3.3,7.7,5,11,5c3.1,0,6.8-1.7,10.9-5C702.3,135,704.4,131.7,704.4,128.5z"
		/>
	<path class="st0" d="M771,72.7c-2.5,0-5.8,1.5-9.9,4.6c-4.1,3.1-6.1,5.8-6.1,8.3v4.1c0,3.2,2.8,6,8.5,8.2l21.6,8.1
		c9.5,3.8,14.3,9.6,14.3,17.5v9.2c0,4.8-3.6,9.9-10.8,15.4c-7.2,5.5-13.6,8.3-19.1,8.3c-5.8,0-14.3-2.9-25.5-8.6
		c-2.5-1.4-3.2-3.3-2.1-5.6l2.1-4.9c1-2.3,2.9-2.8,5.8-1.5c10,5,16.6,7.5,19.7,7.5c2.6,0,5.9-1.5,9.9-4.5c3.9-3,5.9-5.7,5.9-7.9
		v-5.5c0-2.1-0.8-3.9-2.3-5.3c-1.6-1.4-3.8-2.7-6.8-4l-20.7-7.9c-9.5-3.6-14.3-9.1-14.3-16.3v-8.1c0-5,3.7-10.3,11.2-15.9
		c7.4-5.6,13.7-8.4,18.7-8.4c5.6,0,13.8,2.7,24.6,8.1c0.9,0.4,1.5,1,1.9,2c0.4,0.9,0.3,1.9-0.2,2.9l-1.9,5.1c-1.1,2.4-3,2.9-5.6,1.5
		C779.9,74.8,773.7,72.7,771,72.7z"/>
	<path class="st0" d="M834.5,64.4v63.9c0,3.4,2,6.7,6.1,10c4.1,3.3,7.7,5,10.8,5c3,0,6.6-1.7,10.7-5c4.1-3.3,6.2-6.7,6.2-10V64.4
		c0-2.3,1.1-3.4,3.4-3.4h7.5c1,0,1.8,0.3,2.4,0.9c0.6,0.6,0.9,1.4,0.9,2.4v65.9c0,5.9-3.8,11.7-11.3,17.5
		c-7.5,5.8-14.2,8.6-19.9,8.6c-5.9,0-12.6-2.9-20-8.6c-7.5-5.8-11.2-11.6-11.2-17.5V64.4c0-1,0.3-1.8,0.9-2.4
		c0.6-0.6,1.4-0.9,2.4-0.9h7.5c1,0,1.8,0.3,2.4,0.9C834.2,62.6,834.5,63.4,834.5,64.4z"/>
	<path class="st0" d="M936,72.7c-2.5,0-5.8,1.5-9.9,4.6c-4.1,3.1-6.1,5.8-6.1,8.3v4.1c0,3.2,2.8,6,8.5,8.2l21.6,8.1
		c9.5,3.8,14.3,9.6,14.3,17.5v9.2c0,4.8-3.6,9.9-10.8,15.4c-7.2,5.5-13.6,8.3-19.1,8.3c-5.8,0-14.3-2.9-25.5-8.6
		c-2.5-1.4-3.2-3.3-2.1-5.6l2.1-4.9c1-2.3,2.9-2.8,5.8-1.5c10,5,16.6,7.5,19.7,7.5c2.6,0,5.9-1.5,9.9-4.5c3.9-3,5.9-5.7,5.9-7.9
		v-5.5c0-2.1-0.8-3.9-2.3-5.3c-1.6-1.4-3.8-2.7-6.8-4l-20.7-7.9c-9.5-3.6-14.3-9.1-14.3-16.3v-8.1c0-5,3.7-10.3,11.2-15.9
		c7.4-5.6,13.7-8.4,18.7-8.4c5.6,0,13.8,2.7,24.6,8.1c0.9,0.4,1.5,1,1.9,2c0.4,0.9,0.3,1.9-0.2,2.9l-1.9,5.1c-1.1,2.4-3,2.9-5.6,1.5
		C944.9,74.8,938.6,72.7,936,72.7z"/>
	<path class="st0" d="M694.7,41.2c0-0.8-0.3-1.5-0.9-2c-0.6-0.5-1.4-0.8-2.4-0.8h-7.3c-1,0-1.8,0.3-2.4,0.8c-0.6,0.5-0.9,1.2-0.9,2
		v28h13.9V41.2z"/>
	<path class="st0" d="M680.9,174.5c0,0.8,0.3,1.5,0.9,2c0.6,0.5,1.4,0.8,2.4,0.8h7.3c1,0,1.8-0.3,2.4-0.8c0.6-0.5,0.9-1.2,0.9-2v-28
		h-13.9V174.5z"/>
	<linearGradient id="SVGID_1_" gradientUnits="userSpaceOnUse" x1="93.2573" y1="18.5608" x2="230.4523" y2="119.1316">
		<stop  offset="0" style="stop-color:#8AE3FF"/>
		<stop  offset="0.4953" style="stop-color:#8AE3FF"/>
		<stop  offset="0.8918" style="stop-color:#8AE3FF"/>
		<stop  offset="1" style="stop-color:#8AE3FF"/>
	</linearGradient>
	<path class="st1" d="M185.1,97.7c-1.2,0-2.2-0.9-2.4-2.1c-3.1-21.3-20.2-38.1-41.6-40.9c-1.3-0.2-2.3-1.4-2.1-2.7
		c0.2-1.3,1.4-2.3,2.7-2.1c23.5,3.1,42.3,21.6,45.8,45.1c0.2,1.3-0.7,2.6-2.1,2.8C185.4,97.7,185.3,97.7,185.1,97.7z"/>
	<linearGradient id="SVGID_2_" gradientUnits="userSpaceOnUse" x1="73.4766" y1="45.5443" x2="210.6714" y2="146.1151">
		<stop  offset="0" style="stop-color:#8AE3FF"/>
		<stop  offset="0.4953" style="stop-color:#8AE3FF"/>
		<stop  offset="0.8918" style="stop-color:#8AE3FF"/>
		<stop  offset="1" style="stop-color:#8AE3FF"/>
	</linearGradient>
	<path class="st2" d="M172.5,139.4c-0.6,0-1.2-0.2-1.6-0.6c-1-0.9-1.1-2.4-0.2-3.4c6.9-7.6,11.1-16.9,12.3-27
		c0.2-1.3,1.4-2.3,2.7-2.1c1.3,0.2,2.3,1.4,2.1,2.7c-1.3,11.1-6,21.4-13.5,29.7C173.8,139.2,173.1,139.4,172.5,139.4z"/>
	<linearGradient id="SVGID_3_" gradientUnits="userSpaceOnUse" x1="52.3073" y1="74.4228" x2="189.5026" y2="174.9939">
		<stop  offset="0" style="stop-color:#8AE3FF"/>
		<stop  offset="0.4953" style="stop-color:#8AE3FF"/>
		<stop  offset="0.8918" style="stop-color:#8AE3FF"/>
		<stop  offset="1" style="stop-color:#8AE3FF"/>
	</linearGradient>
	<path class="st3" d="M141.5,155.7c-1.2,0-2.2-0.9-2.4-2.1c-0.2-1.3,0.8-2.6,2.1-2.7c8.1-1.1,15.9-4.2,22.5-9.1
		c1.1-0.8,2.6-0.6,3.4,0.5c0.8,1.1,0.6,2.6-0.5,3.4c-7.3,5.4-15.8,8.9-24.8,10.1C141.7,155.7,141.6,155.7,141.5,155.7z"/>
	<linearGradient id="SVGID_4_" gradientUnits="userSpaceOnUse" x1="42.3016" y1="88.0728" x2="179.4969" y2="188.6439">
		<stop  offset="0" style="stop-color:#8AE3FF"/>
		<stop  offset="0.4953" style="stop-color:#8AE3FF"/>
		<stop  offset="0.8918" style="stop-color:#8AE3FF"/>
		<stop  offset="1" style="stop-color:#8AE3FF"/>
	</linearGradient>
	<path class="st4" d="M128.1,155.7c-0.1,0-0.2,0-0.3,0c-24.3-3.2-43.2-22.4-46-46.7c-0.2-1.3,0.8-2.5,2.1-2.7
		c1.3-0.2,2.5,0.8,2.7,2.1c2.6,22.1,19.7,39.6,41.8,42.5c1.3,0.2,2.3,1.4,2.1,2.7C130.4,154.8,129.3,155.7,128.1,155.7z"/>
	<linearGradient id="SVGID_5_" gradientUnits="userSpaceOnUse" x1="62.4735" y1="60.554" x2="199.6707" y2="161.1265">
		<stop  offset="0" style="stop-color:#8AE3FF"/>
		<stop  offset="0.4953" style="stop-color:#8AE3FF"/>
		<stop  offset="0.8918" style="stop-color:#8AE3FF"/>
		<stop  offset="1" style="stop-color:#8AE3FF"/>
	</linearGradient>
	<path class="st5" d="M84.4,97.7c-0.1,0-0.2,0-0.4,0c-1.3-0.2-2.2-1.4-2.1-2.8c1.6-10.8,6.4-20.8,14-28.8c0.9-1,2.5-1,3.4-0.1
		c1,0.9,1,2.5,0.1,3.4c-6.9,7.3-11.3,16.3-12.7,26.2C86.6,96.8,85.6,97.7,84.4,97.7z"/>
	<linearGradient id="SVGID_6_" gradientUnits="userSpaceOnUse" x1="83.2145" y1="32.2612" x2="220.4093" y2="132.832">
		<stop  offset="0" style="stop-color:#8AE3FF"/>
		<stop  offset="0.4953" style="stop-color:#8AE3FF"/>
		<stop  offset="0.8918" style="stop-color:#8AE3FF"/>
		<stop  offset="1" style="stop-color:#8AE3FF"/>
	</linearGradient>
	<path class="st6" d="M105.2,63.7c-0.8,0-1.5-0.4-2-1c-0.8-1.1-0.5-2.6,0.6-3.4c7.1-5,15.3-8.3,23.9-9.4c1.3-0.2,2.6,0.8,2.7,2.1
		c0.2,1.3-0.8,2.6-2.1,2.7c-7.8,1-15.3,4-21.7,8.6C106.2,63.6,105.7,63.7,105.2,63.7z"/>
	<linearGradient id="SVGID_7_" gradientUnits="userSpaceOnUse" x1="67.6182" y1="53.5367" x2="204.8134" y2="154.1077">
		<stop  offset="0" style="stop-color:#8AE3FF"/>
		<stop  offset="0.4953" style="stop-color:#8AE3FF"/>
		<stop  offset="0.8918" style="stop-color:#8AE3FF"/>
		<stop  offset="1" style="stop-color:#8AE3FF"/>
	</linearGradient>
	<path class="st7" d="M134.8,145.9c-23.8,0-43.1-19.4-43.1-43.1c0-23.8,19.4-43.1,43.1-43.1c23.8,0,43.1,19.4,43.1,43.1
		C177.9,126.6,158.6,145.9,134.8,145.9z M134.8,64.5c-21.1,0-38.3,17.2-38.3,38.3c0,21.1,17.2,38.3,38.3,38.3
		c21.1,0,38.3-17.2,38.3-38.3C173,81.7,155.9,64.5,134.8,64.5z"/>
	<linearGradient id="SVGID_8_" gradientUnits="userSpaceOnUse" x1="47.4615" y1="81.035" x2="184.6547" y2="181.6046">
		<stop  offset="0" style="stop-color:#8AE3FF"/>
		<stop  offset="0.4953" style="stop-color:#8AE3FF"/>
		<stop  offset="0.8918" style="stop-color:#8AE3FF"/>
		<stop  offset="1" style="stop-color:#8AE3FF"/>
	</linearGradient>
	<circle class="st8" cx="84.2" cy="108" r="5.3"/>
	<linearGradient id="SVGID_9_" gradientUnits="userSpaceOnUse" x1="88.6468" y1="24.8487" x2="225.8435" y2="125.4208">
		<stop  offset="0" style="stop-color:#8AE3FF"/>
		<stop  offset="0.4953" style="stop-color:#8AE3FF"/>
		<stop  offset="0.8918" style="stop-color:#8AE3FF"/>
		<stop  offset="1" style="stop-color:#8AE3FF"/>
	</linearGradient>
	<circle class="st9" cx="185.6" cy="95.9" r="5.3"/>
	<linearGradient id="SVGID_10_" gradientUnits="userSpaceOnUse" x1="58.1849" y1="34.5214" x2="226.2795" y2="157.7433">
		<stop  offset="0" style="stop-color:#8AE3FF"/>
		<stop  offset="0.4953" style="stop-color:#8AE3FF"/>
		<stop  offset="0.8918" style="stop-color:#8AE3FF"/>
		<stop  offset="1" style="stop-color:#8AE3FF"/>
	</linearGradient>
	<path class="st10" d="M148.9,90.9c0-7.6-6.2-13.8-13.8-13.8c-7.6,0-13.8,6.2-13.8,13.8c0,4.8,2.4,9,6.2,11.5l0.2-1
		c0.3-1.8,2.1-3.3,3.9-3.3h7c1.9,0,3.6,1.5,3.9,3.3l0.2,1C146.4,99.9,148.9,95.7,148.9,90.9z"/>
	<linearGradient id="SVGID_11_" gradientUnits="userSpaceOnUse" x1="46.04" y1="51.0873" x2="214.1361" y2="174.3103">
		<stop  offset="0" style="stop-color:#8AE3FF"/>
		<stop  offset="0.4953" style="stop-color:#8AE3FF"/>
		<stop  offset="0.8918" style="stop-color:#8AE3FF"/>
		<stop  offset="1" style="stop-color:#8AE3FF"/>
	</linearGradient>
	<path class="st11" d="M127.5,102.4l-3.8,23.2c-0.3,1.8,1,3.3,2.8,3.3h17.2c1.9,0,3.1-1.5,2.8-3.3l-3.8-23.2
		c-2.2,1.4-4.8,2.3-7.6,2.3C132.3,104.7,129.7,103.8,127.5,102.4z"/>
	<linearGradient id="SVGID_12_" gradientUnits="userSpaceOnUse" x1="53.2456" y1="41.2574" x2="221.3416" y2="164.4802">
		<stop  offset="0" style="stop-color:#8AE3FF"/>
		<stop  offset="0.4953" style="stop-color:#8AE3FF"/>
		<stop  offset="0.8918" style="stop-color:#8AE3FF"/>
		<stop  offset="1" style="stop-color:#8AE3FF"/>
	</linearGradient>
	<path class="st12" d="M138.6,98h-7c-1.9,0-3.6,1.5-3.9,3.3l-0.2,1c2.2,1.4,4.8,2.3,7.6,2.3c2.8,0,5.4-0.8,7.6-2.3l-0.2-1
		C142.2,99.5,140.5,98,138.6,98z"/>
	<linearGradient id="SVGID_13_" gradientUnits="userSpaceOnUse" x1="70.1516" y1="50.0811" x2="207.3471" y2="150.6524">
		<stop  offset="0" style="stop-color:#8AE3FF"/>
		<stop  offset="0.4953" style="stop-color:#8AE3FF"/>
		<stop  offset="0.8918" style="stop-color:#8AE3FF"/>
		<stop  offset="1" style="stop-color:#8AE3FF"/>
	</linearGradient>
	<path class="st13" d="M228.7,107.2c-1.6,0-3.2-0.8-4-2.3c-0.3-0.5-28.8-50.4-89.9-50.4c-61.1,0-89.6,49.9-89.9,50.4
		c-1.2,2.2-4,3-6.2,1.8c-2.2-1.2-3-4-1.8-6.2c1.2-2.2,31.2-55.1,97.9-55.1c66.6,0,96.6,52.9,97.9,55.1c1.2,2.2,0.4,5-1.8,6.2
		C230.2,107,229.4,107.2,228.7,107.2z"/>
	<linearGradient id="SVGID_14_" gradientUnits="userSpaceOnUse" x1="65.2258" y1="56.8004" x2="202.4202" y2="157.3709">
		<stop  offset="0" style="stop-color:#8AE3FF"/>
		<stop  offset="0.4953" style="stop-color:#8AE3FF"/>
		<stop  offset="0.8918" style="stop-color:#8AE3FF"/>
		<stop  offset="1" style="stop-color:#8AE3FF"/>
	</linearGradient>
	<path class="st14" d="M134.8,159.9c-66.6,0-96.6-52.9-97.9-55.1c-1.2-2.2-0.4-5,1.8-6.2c2.2-1.2,5-0.4,6.2,1.8
		c0.3,0.5,28.8,50.4,89.9,50.4c61.1,0,89.6-49.9,89.9-50.4c1.2-2.2,4-3,6.2-1.8c2.2,1.2,3,4,1.8,6.2
		C231.4,107.1,201.4,159.9,134.8,159.9z"/>
</g>
</svg>
