<?xml version="1.0" encoding="utf-8"?>
<!-- Generator: Adobe Illustrator 22.0.1, SVG Export Plug-In . SVG Version: 6.00 Build 0)  -->
<svg version="1.1" id="Capa_1" xmlns="http://www.w3.org/2000/svg" xmlns:xlink="http://www.w3.org/1999/xlink" x="0px" y="0px"
	 viewBox="0 0 97.7 97.7" style="enable-background:new 0 0 97.7 97.7;" xml:space="preserve">
<style type="text/css">
	.st0{fill:#FFFFFF;}
	.st1{fill:#FF0E0E;}
</style>
<rect x="30.2" y="17.3" class="st0" width="37.4" height="37.4"/>
<g>
	<path class="st1" d="M48.9,0c-19.8,0-36,16.1-36,36c0,5.2,1.1,10.1,3.1,14.7C25,70.3,42.3,91.1,47.3,97c0.4,0.4,0.9,0.7,1.5,0.7
		s1.1-0.3,1.5-0.7c5.1-5.9,22.3-26.7,31.3-46.4c2.1-4.6,3.1-9.5,3.1-14.7C84.8,16.1,68.7,0,48.9,0z M48.9,54.7
		c-10.3,0-18.7-8.4-18.7-18.7c0-10.3,8.4-18.7,18.7-18.7S67.5,25.7,67.5,36C67.5,46.3,59.2,54.7,48.9,54.7z"/>
</g>
</svg>
