<?xml version="1.0" encoding="UTF-8"?>
<svg viewBox="0 0 512 512" xmlns="http://www.w3.org/2000/svg">
<path d="m256 106c-82.711 0-150 67.289-150 150s67.289 150 150 150 150-67.289 150-150-67.289-150-150-150zm0 210c-33.086 0-60-26.914-60-60s26.914-60 60-60 60 26.914 60 60-26.914 60-60 60zm52.121-133.33c-10.844-7.7305-23.465-13.109-37.121-15.41v-30.32c21.879 2.7383 41.945 11.395 58.543 24.305zm-67.121-15.41c-13.656 2.3008-26.277 7.6797-37.121 15.41l-21.422-21.426c16.598-12.91 36.664-21.566 58.543-24.305zm-58.332 36.621c-7.7305 10.844-13.109 23.465-15.41 37.121h-30.32c2.7383-21.879 11.395-41.945 24.305-58.543zm-15.41 67.121c2.3008 13.656 7.6797 26.277 15.41 37.121l-21.426 21.422c-12.91-16.598-21.566-36.664-24.305-58.543zm36.621 58.332c10.844 7.7305 23.465 13.109 37.121 15.41v30.32c-21.879-2.7383-41.945-11.395-58.543-24.305zm67.121 15.41c13.656-2.3008 26.277-7.6797 37.121-15.41l21.422 21.426c-16.598 12.91-36.664 21.566-58.543 24.305zm58.332-36.621c7.7305-10.844 13.109-23.465 15.41-37.121h30.32c-2.7383 21.879-11.395 41.945-24.305 58.543zm15.41-67.121c-2.3008-13.656-7.6797-26.277-15.41-37.121l21.426-21.422c12.91 16.598 21.566 36.664 24.305 58.543z" fill="#fff"/>
<path d="m512 305.26v-98.52l-55.609-13.668c-3.707-11.816-8.4609-23.289-14.199-34.266l29.66-48.992-69.664-69.664-48.992 29.66c-10.977-5.7383-22.449-10.492-34.266-14.199l-13.672-55.609h-98.52l-13.668 55.609c-11.816 3.707-23.289 8.4609-34.266 14.199l-48.992-29.66-69.664 69.664 29.66 48.992c-5.7383 10.977-10.492 22.449-14.199 34.266l-55.609 13.672v98.52l55.609 13.668c3.707 11.816 8.4609 23.289 14.199 34.266l-29.66 48.992 69.664 69.664 48.992-29.66c10.977 5.7383 22.449 10.492 34.266 14.199l13.672 55.609h98.52l13.668-55.609c11.816-3.707 23.289-8.4609 34.266-14.199l48.992 29.66 69.664-69.664-29.66-48.992c5.7383-10.977 10.492-22.449 14.199-34.266zm-77.992 92.348-36.402 36.402-43.879-26.566-7.6875 4.4531c-13.633 7.8906-28.262 13.953-43.48 18.016l-8.5781 2.2891-12.238 49.801h-51.48l-12.242-49.801-8.5781-2.2891c-15.219-4.0625-29.848-10.125-43.48-18.02l-7.6875-4.4492-43.879 26.566-36.402-36.402 26.566-43.883-4.4531-7.6875c-7.8906-13.629-13.953-28.258-18.016-43.477l-2.2891-8.5781-49.801-12.238v-51.48l49.801-12.242 2.2891-8.5781c4.0625-15.219 10.125-29.848 18.02-43.48l4.4492-7.6875-26.566-43.879 36.402-36.402 43.883 26.566 7.6875-4.4531c13.629-7.8906 28.258-13.953 43.477-18.016l8.5781-2.2891 12.238-49.801h51.48l12.242 49.801 8.5781 2.2891c15.219 4.0625 29.848 10.125 43.48 18.02l7.6875 4.4492 43.879-26.566 36.402 36.402-26.566 43.883 4.4531 7.6875c7.8906 13.629 13.953 28.258 18.016 43.477l2.2891 8.5781 49.801 12.242v51.48l-49.801 12.242-2.2891 8.5781c-4.0625 15.219-10.125 29.848-18.016 43.477l-4.4531 7.6875z" fill="#fff"/>
</svg>
