<?xml version="1.0" encoding="UTF-8"?>
<svg width="512px" height="512px" enable-background="new 0 0 35.235 35.235" version="1.1" viewBox="0 0 35.235 35.235" xml:space="preserve" xmlns="http://www.w3.org/2000/svg">
	<g fill="#fff">
		<path d="m26.776 12.687h-7.526c0.68 0 1.233-0.553 1.233-1.234s-0.554-1.23-1.233-1.23h-3.078c-0.68 0-1.232 0.549-1.232 1.23s0.553 1.234 1.232 1.234h-7.527c-2.094 0-3.828 1.877-4.165 3.875h26.464c-0.339-1.999-2.073-3.875-4.168-3.875z"/>
		<path d="m31.005 18.677v-0.352h-31.005v1.762h4.417v10.918c0 2.338 1.894 4.229 4.228 4.229h18.132c2.336 0 4.229-1.891 4.229-4.229v-10.566h4.229v-1.762h-4.23z"/>
		<path d="m11.24 4.235c0.123 0.162 0.254 0.318 0.391 0.465l0.341 0.342c0.216 0.217 0.417 0.434 0.577 0.629 0.08 0.098 0.146 0.191 0.195 0.268 0.047 0.076 0.09 0.135 0.1 0.223 0.012 0.094-0.037 0.221-0.133 0.348-0.096 0.125-0.23 0.246-0.387 0.367 0.186 0.072 0.389 0.096 0.605 0.07 0.215-0.025 0.451-0.121 0.648-0.326 0.195-0.205 0.304-0.508 0.321-0.775 0.019-0.27-0.022-0.514-0.083-0.734-0.123-0.438-0.327-0.793-0.545-1.119-0.109-0.16-0.244-0.322-0.34-0.447-0.096-0.113-0.185-0.229-0.266-0.344-0.33-0.459-0.561-0.873-0.647-1.359-0.09-0.492 0.01-1.121 0.307-1.842-0.771 0.162-1.457 0.807-1.681 1.709-0.111 0.445-0.087 0.934 0.032 1.363 0.118 0.438 0.327 0.824 0.565 1.162z"/>
		<path d="m15.809 4.235c0.123 0.162 0.255 0.318 0.391 0.465l0.34 0.342c0.216 0.217 0.416 0.434 0.58 0.629 0.077 0.098 0.143 0.191 0.193 0.268 0.049 0.076 0.09 0.135 0.098 0.223 0.013 0.094-0.035 0.221-0.131 0.348-0.095 0.125-0.23 0.246-0.389 0.367 0.188 0.072 0.392 0.096 0.607 0.07 0.214-0.025 0.453-0.121 0.648-0.326 0.197-0.205 0.304-0.508 0.322-0.775 0.019-0.27-0.021-0.514-0.082-0.734-0.125-0.438-0.33-0.793-0.548-1.119-0.107-0.16-0.243-0.322-0.339-0.447-0.094-0.113-0.185-0.229-0.264-0.344-0.331-0.459-0.563-0.873-0.649-1.359-0.09-0.49 8e-3 -1.119 0.304-1.84-0.77 0.162-1.455 0.807-1.678 1.709-0.111 0.445-0.088 0.934 0.031 1.363 0.12 0.436 0.325 0.822 0.566 1.16z"/>
		<path d="m19.972 4.235c0.122 0.162 0.253 0.318 0.39 0.465l0.341 0.342c0.216 0.217 0.415 0.434 0.577 0.629 0.08 0.098 0.146 0.191 0.195 0.268 0.047 0.076 0.088 0.135 0.1 0.223 0.013 0.094-0.037 0.221-0.133 0.348-0.095 0.125-0.23 0.246-0.389 0.367 0.188 0.072 0.392 0.096 0.605 0.07 0.215-0.025 0.453-0.121 0.65-0.326 0.195-0.205 0.303-0.508 0.32-0.775 0.02-0.27-0.021-0.514-0.082-0.734-0.123-0.438-0.326-0.793-0.545-1.119-0.109-0.16-0.244-0.322-0.34-0.447-0.096-0.113-0.186-0.229-0.266-0.344-0.33-0.459-0.561-0.873-0.646-1.359-0.091-0.492 9e-3 -1.121 0.304-1.842-0.77 0.162-1.457 0.807-1.679 1.709-0.11 0.445-0.087 0.934 0.032 1.363 0.118 0.438 0.325 0.824 0.566 1.162z"/>
	</g>
</svg>
