<svg width="16" height="16" viewBox="0 0 16 16" fill="none" xmlns="http://www.w3.org/2000/svg">
<path fill-rule="evenodd" clip-rule="evenodd" d="M3.99912 2.01398C5.18331 1.22251 6.57565 0.800049 7.99998 0.800049C9.90828 0.800049 11.7385 1.55762 13.0886 2.9063C14.4386 4.25499 15.198 6.08446 15.2 7.99276C15.2014 9.41709 14.7804 10.8099 13.9901 11.9948C13.1998 13.1798 12.0759 14.1038 10.7604 14.6499C9.44485 15.196 7.99695 15.3396 6.5998 15.0626C5.20266 14.7856 3.91907 14.1004 2.9114 13.0938C1.90373 12.0871 1.21728 10.8042 0.938871 9.40738C0.660466 8.01052 0.802624 6.56247 1.34736 5.24641C1.8921 3.93036 2.81493 2.80544 3.99912 2.01398ZM10.0001 11.8277C10.0238 11.8 10.0402 11.7669 10.0478 11.7312L11.4032 5.15794C11.4109 5.11966 11.4083 5.08002 11.3955 5.04312C11.3827 5.00622 11.3603 4.97342 11.3305 4.94813C11.3007 4.92284 11.2648 4.90598 11.2263 4.89931C11.1878 4.89263 11.1483 4.89638 11.1117 4.91017L3.48177 7.82515C3.44052 7.84101 3.40506 7.869 3.38004 7.90543C3.35502 7.94186 3.34163 7.98501 3.34163 8.0292C3.34163 8.07339 3.35502 8.11654 3.38004 8.15296C3.40506 8.18939 3.44052 8.21738 3.48177 8.23325L5.34006 8.96199L6.06881 11.2721C6.07954 11.3066 6.09862 11.3378 6.12436 11.3631C6.1501 11.3884 6.1817 11.4069 6.21633 11.417C6.25096 11.4271 6.28756 11.4285 6.32285 11.421C6.35815 11.4135 6.39104 11.3974 6.41861 11.3741L7.45342 10.5215C7.50741 10.4789 7.57415 10.4558 7.6429 10.4558C7.71164 10.4558 7.77838 10.4789 7.83237 10.5215L9.70524 11.8624C9.73471 11.8838 9.76907 11.8976 9.8052 11.9024C9.84133 11.9072 9.87808 11.9029 9.91212 11.8898C9.94616 11.8768 9.97639 11.8554 10.0001 11.8277ZM5.94492 8.58304L9.58865 6.3458C9.60701 6.33807 9.62769 6.33794 9.64614 6.34546C9.66459 6.35298 9.67929 6.36752 9.68703 6.38588C9.69476 6.40424 9.69488 6.42492 9.68736 6.44337C9.67984 6.46182 9.66531 6.47653 9.64694 6.48426L6.65181 9.26806C6.54758 9.36632 6.48062 9.49766 6.46233 9.63972L6.36031 10.3685C6.35465 10.3883 6.3427 10.4057 6.32627 10.4181C6.30983 10.4305 6.2898 10.4372 6.26922 10.4372C6.24863 10.4372 6.2286 10.4305 6.21216 10.4181C6.19573 10.4057 6.18378 10.3883 6.17812 10.3685L5.7846 8.99114C5.76341 8.91493 5.76759 8.8339 5.79651 8.76028C5.82543 8.68666 5.87753 8.62445 5.94492 8.58304Z" fill="#9198BB"/>
</svg>
