<svg width="16" height="13" viewBox="0 0 16 13" fill="none" xmlns="http://www.w3.org/2000/svg">
<path d="M15.7833 1.90693C15.1991 2.163 14.5796 2.33042 13.9456 2.40362C14.616 2.00595 15.1184 1.37931 15.3592 0.640369C14.7316 1.00968 14.0455 1.27002 13.3302 1.41024C12.8484 0.89733 12.2099 0.557197 11.5139 0.442686C10.818 0.328176 10.1035 0.445701 9.48151 0.777001C8.85954 1.1083 8.36489 1.63483 8.07442 2.27477C7.78395 2.91472 7.71392 3.63225 7.87522 4.31589C6.6057 4.25402 5.3634 3.92729 4.22884 3.35685C3.09429 2.78642 2.0928 1.98503 1.28929 1.00461C0.883977 1.7044 0.760707 2.5313 0.944405 3.31811C1.1281 4.10492 1.60506 4.79293 2.27884 5.24305C1.77296 5.23265 1.27689 5.10209 0.831934 4.86225C0.832358 5.59655 1.08747 6.30818 1.55414 6.87683C2.02082 7.44548 2.67042 7.83627 3.39313 7.98313C2.92165 8.11249 2.42662 8.13232 1.94622 8.04108C2.15053 8.67317 2.54804 9.22595 3.08325 9.62221C3.61846 10.0185 4.26463 10.2384 4.93151 10.2514C3.79964 11.1338 2.40267 11.612 0.964983 11.609C0.709369 11.6105 0.453895 11.5967 0.199951 11.5676C1.66064 12.5031 3.36095 13.0003 5.09782 12.9997C6.29424 13.0096 7.48071 12.7827 8.5883 12.3322C9.69589 11.8818 10.7025 11.2167 11.5497 10.3756C12.3969 9.53452 13.0677 8.53425 13.5233 7.43288C13.9788 6.3315 14.21 5.15099 14.2034 3.95993C14.2034 3.8192 14.2034 3.68674 14.2034 3.54602C14.8306 3.09348 15.3713 2.53274 15.8 1.89038L15.7833 1.90693Z" fill="#9198BB"/>
</svg>
