<svg width="16" height="12" viewBox="0 0 16 12" fill="none" xmlns="http://www.w3.org/2000/svg">
<path d="M12.5398 0.600127H3.4606C2.60548 0.591895 1.78198 0.919447 1.17076 1.51093C0.559527 2.10241 0.210483 2.90951 0.200195 3.75518L0.200195 8.24477C0.210483 9.09044 0.559527 9.89755 1.17076 10.489C1.78198 11.0805 2.60548 11.4081 3.4606 11.3998H12.5398C13.3949 11.4081 14.2184 11.0805 14.8296 10.489C15.4409 9.89755 15.7899 9.09044 15.8002 8.24477V3.75518C15.7899 2.90951 15.4409 2.10241 14.8296 1.51093C14.2184 0.919447 13.3949 0.591895 12.5398 0.600127ZM10.3402 6.21597L6.0892 8.22163C6.06311 8.23319 6.03451 8.23813 6.00601 8.23599C5.9775 8.23385 5.94999 8.2247 5.92596 8.20938C5.90194 8.19405 5.88217 8.17303 5.86845 8.14822C5.85473 8.12342 5.84749 8.09562 5.84739 8.06735V3.94032C5.84685 3.91101 5.85399 3.88206 5.86812 3.85629C5.88225 3.83052 5.90288 3.80881 5.92802 3.79327C5.95315 3.77774 5.98193 3.7689 6.01154 3.76764C6.04116 3.76637 6.0706 3.77271 6.09699 3.78604L10.3402 5.91512C10.368 5.92948 10.3913 5.95109 10.4075 5.97761C10.4238 6.00413 10.4323 6.03454 10.4323 6.06555C10.4323 6.09655 10.4238 6.12697 10.4075 6.15348C10.3913 6.18 10.368 6.20161 10.3402 6.21597Z" fill="#9198BB"/>
</svg>
