<svg width="183" height="126" viewBox="0 0 183 126" fill="none" xmlns="http://www.w3.org/2000/svg">
<path d="M14.9697 79.0025H4.03263V90.2605C4.03263 90.5279 3.95241 90.7418 3.76522 90.9023C3.57803 91.0627 3.3641 91.143 3.15017 91.143H1.03762C0.770212 91.143 0.556284 91.0627 0.369096 90.8755C0.181908 90.6884 0.101685 90.4744 0.101685 90.2605V65.7389C0.101685 64.1077 1.25155 62.3428 3.57803 60.4976C5.87777 58.6258 7.85661 57.7166 9.51456 57.7166C11.1458 57.7166 13.1246 58.6525 15.4511 60.4976C17.7508 62.3428 18.9274 64.1077 18.9274 65.7389V90.2605C18.9274 90.5012 18.8472 90.7151 18.66 90.8755C18.4728 91.0627 18.2589 91.143 17.9915 91.143H15.9324C15.6918 91.143 15.4778 91.0627 15.3174 90.8755C15.1302 90.6884 15.05 90.4744 15.05 90.2605V79.0025H14.9697ZM4.00589 66.247V75.5529H14.943V66.247C14.943 65.2843 14.2745 64.2146 12.9374 63.0915C11.6004 61.9417 10.4505 61.3801 9.46107 61.3801C8.52514 61.3801 7.37527 61.9417 6.01147 63.0915C4.70116 64.2146 4.00589 65.2843 4.00589 66.247Z" fill="white"/>
<path d="M38.4233 90.2603V72.932C38.4233 72.1298 37.8885 71.3008 36.8456 70.4451C35.8027 69.5894 34.9202 69.1615 34.1982 69.1615C33.503 69.1615 32.6205 69.5894 31.5509 70.4451C30.508 71.3008 29.9731 72.1298 29.9731 72.932V90.2603C29.9731 90.5277 29.8929 90.7416 29.7325 90.9021C29.572 91.0625 29.3581 91.1427 29.0907 91.1427H27.0851C26.4701 91.1427 26.1759 90.8486 26.1759 90.2335V72.3705C26.1759 70.9264 27.1386 69.4557 29.0907 67.9314C31.0428 66.4072 32.7275 65.6584 34.1715 65.6584C35.1074 65.6584 36.1771 66.0328 37.3537 66.7816C38.5303 67.5303 39.5464 68.386 40.3487 69.322C41.1509 68.386 42.1671 67.5303 43.3704 66.7816C44.5738 66.0328 45.6434 65.6584 46.5259 65.6584C47.9966 65.6584 49.7081 66.4072 51.6602 67.9314C53.6123 69.4557 54.5749 70.9264 54.5749 72.3705V90.2603C54.5749 90.5277 54.4947 90.7416 54.3075 90.9021C54.1203 91.0625 53.9064 91.1427 53.6925 91.1427H51.6869C51.0719 91.1427 50.7777 90.8486 50.7777 90.2335V72.932C50.7777 72.1298 50.2429 71.3008 49.2 70.4451C48.1571 69.5894 47.2479 69.1615 46.4991 69.1615C45.8039 69.1615 44.9214 69.5894 43.8518 70.4451C42.8089 71.3008 42.274 72.1298 42.274 72.932V90.2603C42.274 90.8753 41.9799 91.1695 41.3648 91.1695H39.3593C39.0918 91.1695 38.8779 91.0893 38.7175 90.9288C38.5035 90.7416 38.4233 90.5277 38.4233 90.2603Z" fill="white"/>
<path d="M65.4051 56.8075V68.2527C66.0468 67.5574 66.8491 66.9424 67.8118 66.4076C68.7744 65.8995 69.6569 65.6321 70.4859 65.6321C71.9031 65.6321 73.5611 66.3808 75.5132 67.9051C77.4653 69.4293 78.428 70.9536 78.428 72.5045V84.6183C78.428 86.1158 77.4118 87.6667 75.3527 89.2177C73.3204 90.7687 71.5288 91.5442 69.9778 91.5442C68.4001 91.5442 66.6084 90.7687 64.6028 89.2445C62.5972 87.6935 61.5811 86.1692 61.5811 84.6717V56.8075C61.5811 56.5401 61.6613 56.3262 61.8217 56.1657C61.9822 56.0053 62.1961 55.925 62.4635 55.925H64.4691C64.7365 55.925 64.9505 56.0053 65.1109 56.1657C65.3248 56.3262 65.4051 56.5401 65.4051 56.8075ZM74.5773 73.0661C74.5773 72.2371 74.0157 71.3547 72.9193 70.4722C71.8229 69.5898 70.8335 69.1352 70.0045 69.1352C69.2023 69.1352 68.2396 69.5898 67.0897 70.4722C65.9399 71.3547 65.3783 72.2104 65.3783 73.0126V84.1102C65.3783 84.9124 65.9131 85.7681 67.0095 86.6773C68.1059 87.5865 69.0686 88.0411 69.951 88.0411C70.8335 88.0411 71.7962 87.5865 72.9193 86.7041C74.0157 85.8216 74.5773 84.9659 74.5773 84.1102V73.0661V73.0661Z" fill="white"/>
<path d="M96.1321 67.2371L95.8915 68.7346C95.7845 69.2695 95.4101 69.4834 94.7416 69.3764C94.0731 69.2427 93.5115 69.1625 93.0301 69.1625C92.3349 69.1625 91.4524 69.6171 90.3827 70.553C89.3398 71.4622 88.805 72.3179 88.805 73.0934V90.2345C88.805 90.8495 88.5109 91.1437 87.8958 91.1437H85.8902C85.6228 91.1437 85.4089 91.0635 85.2484 90.903C85.088 90.7426 85.0078 90.5286 85.0078 90.2612V72.5854C85.0078 71.1146 85.9704 69.5904 87.8691 68.0394C89.7677 66.4884 91.4524 65.7129 92.8964 65.7129C93.8056 65.7129 94.6613 65.8466 95.4636 66.114C96.0519 66.2477 96.2658 66.6488 96.1321 67.2371Z" fill="white"/>
<path d="M103 67.9849C105.033 66.4339 106.798 65.6584 108.349 65.6584C109.9 65.6584 111.665 66.4339 113.697 67.9582C115.729 69.5092 116.745 71.0602 116.745 72.6379V84.5912C116.745 86.0887 115.729 87.6397 113.67 89.2174C111.638 90.7951 109.846 91.5706 108.349 91.5706C106.798 91.5706 105.033 90.7951 103 89.2441C100.968 87.6931 99.9519 86.1422 99.9519 84.5912V72.6111C99.9519 71.0869 100.968 69.5359 103 67.9849ZM112.921 84.0831V73.1192C112.921 72.2368 112.36 71.381 111.263 70.4719C110.167 69.5894 109.178 69.1348 108.349 69.1348C107.52 69.1348 106.53 69.5894 105.434 70.4719C104.337 71.3543 103.776 72.2368 103.776 73.1192V84.0563C103.776 84.9388 104.311 85.7945 105.407 86.7037C106.504 87.5862 107.466 88.0408 108.349 88.0408C109.178 88.0408 110.167 87.5862 111.263 86.7037C112.36 85.8213 112.921 84.9388 112.921 84.0831Z" fill="white"/>
<path d="M130.732 69.1619C130.064 69.1619 129.181 69.563 128.085 70.392C126.988 71.221 126.454 71.943 126.454 72.6115V73.7079C126.454 74.5636 127.202 75.3124 128.727 75.9007L134.503 78.0667C137.043 79.0829 138.327 80.6338 138.327 82.7464V85.2066C138.327 86.4902 137.364 87.854 135.439 89.3247C133.513 90.7955 131.802 91.5442 130.331 91.5442C128.78 91.5442 126.507 90.7687 123.512 89.2445C122.844 88.8701 122.656 88.362 122.95 87.747L123.512 86.4367C123.779 85.8216 124.288 85.6879 125.063 86.0356C127.737 87.3726 129.502 88.0411 130.331 88.0411C131.026 88.0411 131.909 87.64 132.978 86.8378C134.021 86.0356 134.556 85.3135 134.556 84.7252V83.2545C134.556 82.6929 134.342 82.2116 133.941 81.8372C133.513 81.4628 132.925 81.1152 132.123 80.7676L126.587 78.655C124.047 77.6923 122.763 76.2216 122.763 74.2962V72.1302C122.763 70.7931 123.753 69.3758 125.758 67.8783C127.737 66.3808 129.422 65.6321 130.759 65.6321C132.256 65.6321 134.449 66.3541 137.337 67.7981C137.578 67.9051 137.738 68.0655 137.845 68.3329C137.952 68.5736 137.926 68.841 137.792 69.1084L137.284 70.4722C136.99 71.114 136.481 71.2477 135.786 70.8733C133.112 69.7235 131.454 69.1619 130.732 69.1619Z" fill="white"/>
<path d="M147.712 66.9429V84.0305C147.712 84.9397 148.247 85.8221 149.343 86.7046C150.439 87.587 151.402 88.0416 152.231 88.0416C153.033 88.0416 153.996 87.587 155.092 86.7046C156.189 85.8221 156.75 84.9129 156.75 84.0305V66.9429C156.75 66.3278 157.044 66.0337 157.659 66.0337H159.665C159.932 66.0337 160.146 66.1139 160.307 66.2744C160.467 66.4348 160.548 66.6487 160.548 66.9161V84.5385C160.548 86.1163 159.531 87.6672 157.526 89.2182C155.52 90.7692 153.729 91.518 152.204 91.518C150.627 91.518 148.835 90.7425 146.856 89.2182C144.85 87.6672 143.861 86.1163 143.861 84.5385V66.9429C143.861 66.6755 143.941 66.4615 144.102 66.3011C144.262 66.1407 144.476 66.0604 144.744 66.0604H146.749C147.017 66.0604 147.23 66.1407 147.391 66.3011C147.632 66.4615 147.712 66.6755 147.712 66.9429Z" fill="white"/>
<path d="M174.856 69.1619C174.188 69.1619 173.305 69.563 172.209 70.392C171.113 71.221 170.578 71.943 170.578 72.6115V73.7079C170.578 74.5636 171.327 75.3124 172.851 75.9007L178.627 78.0667C181.167 79.0829 182.451 80.6338 182.451 82.7464V85.2066C182.451 86.4902 181.488 87.854 179.563 89.3247C177.637 90.7955 175.926 91.5442 174.455 91.5442C172.904 91.5442 170.631 90.7687 167.636 89.2445C166.968 88.8701 166.781 88.362 167.075 87.747L167.636 86.4367C167.904 85.8216 168.412 85.6879 169.187 86.0356C171.861 87.3726 173.626 88.0411 174.455 88.0411C175.151 88.0411 176.033 87.64 177.103 86.8378C178.146 86.0356 178.68 85.3135 178.68 84.7252V83.2545C178.68 82.6929 178.466 82.2116 178.065 81.8372C177.637 81.4628 177.049 81.1152 176.247 80.7676L170.712 78.655C168.171 77.6923 166.888 76.2216 166.888 74.2962V72.1302C166.888 70.7931 167.877 69.3758 169.883 67.8783C171.861 66.3808 173.546 65.6321 174.883 65.6321C176.381 65.6321 178.573 66.3541 181.461 67.7981C181.702 67.9051 181.863 68.0655 181.97 68.3329C182.077 68.5736 182.05 68.841 181.916 69.1084L181.408 70.4722C181.114 71.114 180.606 71.2477 179.91 70.8733C177.236 69.7235 175.552 69.1619 174.856 69.1619Z" fill="white"/>
<path d="M110.33 60.7385C110.33 60.5246 110.25 60.3374 110.09 60.2037C109.929 60.07 109.715 59.9897 109.448 59.9897H107.496C107.228 59.9897 107.014 60.07 106.854 60.2037C106.693 60.3374 106.613 60.5246 106.613 60.7385V68.226H110.33V60.7385V60.7385Z" fill="white"/>
<path d="M106.638 96.3845C106.638 96.5984 106.718 96.7856 106.879 96.9193C107.039 97.053 107.253 97.1332 107.52 97.1332H109.472C109.74 97.1332 109.954 97.053 110.114 96.9193C110.275 96.7856 110.355 96.5984 110.355 96.3845V88.897H106.638V96.3845V96.3845Z" fill="white"/>
<path fill-rule="evenodd" clip-rule="evenodd" d="M130.26 21.9408C128.563 19.1124 116.342 0 90.8976 0C65.3218 0 53.1025 19.2523 51.5109 21.9711C51.2548 22.3007 51.1182 22.7105 51.1211 23.1267C51.117 23.5574 51.2624 23.9815 51.535 24.3172C53.2319 27.1455 65.4531 46.258 90.8977 46.258C116.411 46.258 128.63 27.0779 130.274 24.3002C130.537 23.9683 130.677 23.553 130.674 23.1311C130.678 22.7006 130.533 22.2765 130.26 21.9408ZM55.1454 23.129C57.1768 26.2293 64.6915 36.4194 78.2663 40.6813C73.9026 37.5359 70.7851 32.7999 69.7305 27.3053C68.9066 27.0072 68.3178 26.2179 68.3178 25.2912C68.3178 24.1086 69.2764 23.15 70.459 23.15C71.6415 23.15 72.6002 24.1086 72.6002 25.2912C72.6002 26.0212 72.2349 26.6659 71.6771 27.0524C73.2333 34.7991 79.2615 40.8741 87.0416 42.4141C88.2893 42.5237 89.5746 42.5816 90.8977 42.5816C92.1989 42.5816 93.4636 42.5256 94.6919 42.4195C97.5274 41.8558 100.235 40.6796 102.571 38.9454C103.016 38.6222 103.622 38.703 103.945 39.1474C104.268 39.5918 104.187 40.1978 103.743 40.521C103.669 40.5759 103.594 40.6304 103.519 40.6843C117.1 36.4243 124.618 26.2302 126.65 23.129C124.595 19.9933 116.931 9.60481 103.061 5.43299C107.411 8.43359 110.617 12.9922 111.861 18.3066C112.832 18.51 113.561 19.371 113.561 20.4022C113.561 21.5848 112.603 22.5434 111.42 22.5434C110.237 22.5434 109.279 21.5848 109.279 20.4022C109.279 19.7733 109.55 19.2076 109.982 18.8159C108.201 10.9145 101.595 4.82407 93.4469 3.75791C93.4243 3.75444 93.402 3.75022 93.3799 3.74528C92.5678 3.69988 91.7404 3.67639 90.8976 3.67639C90.0307 3.67639 89.1801 3.70125 88.3456 3.74924C88.3218 3.75314 88.2978 3.75604 88.2735 3.75791C85.1223 4.16191 82.0923 5.37391 79.5067 7.2323C79.3451 7.3535 79.1431 7.3939 78.9411 7.3939C78.6179 7.3939 78.3351 7.2323 78.1331 6.9899C77.8099 6.5455 77.9311 5.9395 78.3755 5.6163C78.4385 5.57195 78.5017 5.52791 78.5651 5.48422C64.8018 9.68919 57.1917 20.0059 55.1454 23.129ZM105.481 37.7341C105.643 37.8957 105.885 37.9765 106.128 37.9765C106.37 37.9765 106.653 37.8957 106.855 37.6937C109.885 34.3405 111.784 30.1793 112.309 25.695C112.39 25.1698 111.986 24.685 111.461 24.6042C110.935 24.5234 110.451 24.9274 110.37 25.4526C109.885 29.5329 108.188 33.2901 105.401 36.3605C105.037 36.7645 105.077 37.3705 105.481 37.7341ZM70.5326 21.13H70.371C69.8458 21.0492 69.4822 20.5645 69.5226 19.9989C70.169 15.6357 72.1082 11.5957 75.1786 8.36369C75.5422 7.9597 76.1886 7.9597 76.5522 8.32329C76.9562 8.68689 76.9562 9.33329 76.5926 9.69689C73.805 12.6461 72.0274 16.2821 71.4618 20.2817C71.4214 20.7665 71.0174 21.13 70.5326 21.13ZM90.899 40.603C81.2839 40.603 73.4867 32.7655 73.4867 23.1907C73.4867 13.5755 81.3243 5.77835 90.899 5.77835C100.514 5.77835 108.311 13.6159 108.311 23.1907C108.311 32.8059 100.514 40.603 90.899 40.603ZM90.899 7.71755C82.3747 7.71755 75.4259 14.6663 75.4259 23.1907C75.4259 31.7151 82.3747 38.6638 90.899 38.6638C99.4234 38.6638 106.372 31.7151 106.372 23.1907C106.332 14.6663 99.4234 7.71755 90.899 7.71755ZM91.0215 12.8082C94.0918 12.8082 96.5966 15.313 96.5966 18.3834C96.5966 20.3226 95.5866 22.0194 94.0918 23.0294L94.0844 22.9924C93.1973 23.5949 92.1498 23.9162 91.0219 23.9162C89.8938 23.9162 88.8459 23.5545 87.9587 22.9915L87.9511 23.0293C88.8392 23.5937 89.8884 23.9564 91.0182 23.9564C92.1494 23.9564 93.1998 23.5928 94.0886 23.0272L95.6238 32.4C95.745 33.1272 95.2602 33.7332 94.4926 33.7332H87.5438C86.8167 33.7332 86.2915 33.1272 86.4127 32.4L87.9478 23.0273C86.4145 22.017 85.4463 20.3213 85.4463 18.3834C85.4463 15.313 87.9511 12.8082 91.0215 12.8082Z" fill="white"/>
<path d="M50.8424 115.186V120.172H55.5695C55.6702 120.172 55.7566 120.215 55.8285 120.301C55.9149 120.373 55.958 120.46 55.958 120.56V121.273C55.958 121.388 55.9149 121.481 55.8285 121.553C55.7566 121.625 55.6702 121.661 55.5695 121.661H49.979C49.8351 121.661 49.6624 121.561 49.4609 121.359C49.2595 121.158 49.1587 120.985 49.1587 120.841V108.278C49.1587 108.135 49.2595 107.962 49.4609 107.76C49.6624 107.559 49.8422 107.458 50.0005 107.458H55.5695C55.6702 107.458 55.7566 107.494 55.8285 107.566C55.9149 107.638 55.958 107.732 55.958 107.847V108.559C55.958 108.66 55.9149 108.753 55.8285 108.84C55.7566 108.912 55.6702 108.948 55.5695 108.948H50.8424V113.696H54.9651C55.0658 113.696 55.1522 113.74 55.2241 113.826C55.3105 113.898 55.3536 113.984 55.3536 114.085V114.797C55.3536 114.912 55.3105 115.006 55.2241 115.078C55.1522 115.15 55.0658 115.186 54.9651 115.186H50.8424Z" fill="white"/>
<path d="M62.0728 121.834C61.4253 121.834 60.6626 121.503 59.7848 120.841C58.907 120.165 58.4681 119.496 58.4681 118.834V113.696C58.4681 113.034 58.907 112.372 59.7848 111.711C60.6626 111.034 61.4253 110.696 62.0728 110.696C62.706 110.696 63.555 111.005 64.6199 111.624C64.8645 111.768 64.9293 111.977 64.8142 112.25L64.5767 112.725C64.4472 112.998 64.2314 113.056 63.9292 112.898C63.0082 112.437 62.3894 112.207 62.0728 112.207C61.7275 112.207 61.3102 112.401 60.8209 112.79C60.346 113.178 60.1086 113.56 60.1086 113.934V118.618C60.1086 118.992 60.346 119.373 60.8209 119.762C61.2958 120.136 61.7131 120.323 62.0728 120.323C62.375 120.323 63.001 120.086 63.9508 119.611C64.2673 119.452 64.4832 119.51 64.5983 119.783L64.8142 120.28C64.9293 120.524 64.8789 120.712 64.6631 120.841C63.5982 121.503 62.7348 121.834 62.0728 121.834Z" fill="white"/>
<path d="M68.2582 111.711C69.136 111.034 69.9058 110.696 70.5678 110.696C71.2297 110.696 71.9924 111.027 72.8558 111.689C73.7336 112.351 74.1725 113.02 74.1725 113.696V118.834C74.1725 119.481 73.7336 120.143 72.8558 120.819C71.978 121.496 71.2153 121.834 70.5678 121.834C69.9058 121.834 69.136 121.503 68.2582 120.841C67.3948 120.165 66.9631 119.496 66.9631 118.834V113.696C66.9631 113.034 67.3948 112.372 68.2582 111.711ZM72.532 118.618V113.912C72.532 113.538 72.2946 113.164 71.8197 112.79C71.3448 112.401 70.9275 112.207 70.5678 112.207C70.208 112.207 69.7907 112.401 69.3158 112.79C68.841 113.164 68.6035 113.538 68.6035 113.912V118.618C68.6035 118.992 68.8338 119.373 69.2942 119.762C69.7691 120.136 70.1936 120.323 70.5678 120.323C70.9275 120.323 71.3448 120.136 71.8197 119.762C72.2946 119.373 72.532 118.992 72.532 118.618Z" fill="white"/>
<path d="M80.1918 112.207C79.904 112.207 79.5227 112.387 79.0478 112.747C78.5874 113.092 78.3571 113.409 78.3571 113.696V114.171C78.3571 114.545 78.6809 114.862 79.3284 115.121L81.8107 116.049C82.9044 116.481 83.4512 117.15 83.4512 118.057V119.114C83.4512 119.661 83.0339 120.251 82.1993 120.884C81.379 121.517 80.6523 121.834 80.0192 121.834C79.3572 121.834 78.3787 121.503 77.0836 120.841C76.7958 120.683 76.7166 120.467 76.8462 120.193L77.0836 119.632C77.1987 119.373 77.4218 119.316 77.7527 119.46C78.9039 120.035 79.6594 120.323 80.0192 120.323C80.3214 120.323 80.6955 120.15 81.1416 119.805C81.6021 119.46 81.8323 119.157 81.8323 118.898V118.272C81.8323 118.028 81.7388 117.826 81.5517 117.668C81.379 117.51 81.12 117.359 80.7746 117.215L78.4003 116.287C77.3066 115.869 76.7598 115.243 76.7598 114.409V113.48C76.7598 112.905 77.1843 112.301 78.0333 111.667C78.8967 111.02 79.6162 110.696 80.1918 110.696C80.8394 110.696 81.782 111.005 83.0195 111.624C83.1202 111.667 83.1922 111.746 83.2354 111.862C83.2785 111.962 83.2713 112.07 83.2138 112.185L82.9979 112.768C82.8684 113.042 82.6526 113.099 82.3504 112.941C81.2135 112.452 80.494 112.207 80.1918 112.207Z" fill="white"/>
<path d="M87.493 118.639C87.493 118.999 87.7232 119.373 88.1837 119.762C88.6586 120.136 89.0687 120.323 89.4141 120.323C89.7594 120.323 90.1696 120.136 90.6444 119.762C91.1193 119.373 91.3567 118.999 91.3567 118.639V111.257C91.3567 110.998 91.4863 110.869 91.7453 110.869H92.6087C92.8677 110.869 92.9972 110.998 92.9972 111.257V122.935C92.9972 123.625 92.5727 124.309 91.7237 124.985C90.8891 125.662 90.112 126 89.3925 126C88.7593 126 87.8024 125.64 86.5217 124.921C86.2627 124.777 86.1907 124.575 86.3058 124.316L86.5648 123.755C86.7231 123.496 86.9246 123.438 87.1692 123.582C88.2773 124.172 89.0112 124.467 89.3709 124.467C89.745 124.467 90.1696 124.273 90.6444 123.885C91.1193 123.496 91.3567 123.122 91.3567 122.762V120.712C90.666 121.46 89.9897 121.834 89.3277 121.834C88.6946 121.834 87.9535 121.503 87.1045 120.841C86.2699 120.179 85.8525 119.517 85.8525 118.855V111.257C85.8525 110.998 85.9821 110.869 86.2411 110.869H87.1045C87.3635 110.869 87.493 110.998 87.493 111.257V118.639Z" fill="white"/>
<path d="M99.142 112.207C98.8542 112.207 98.4729 112.387 97.998 112.747C97.5375 113.092 97.3073 113.409 97.3073 113.696V114.171C97.3073 114.545 97.6311 114.862 98.2786 115.121L100.761 116.049C101.855 116.481 102.401 117.15 102.401 118.057V119.114C102.401 119.661 101.984 120.251 101.149 120.884C100.329 121.517 99.6025 121.834 98.9694 121.834C98.3074 121.834 97.3289 121.503 96.0338 120.841C95.746 120.683 95.6668 120.467 95.7964 120.193L96.0338 119.632C96.1489 119.373 96.372 119.316 96.7029 119.46C97.8541 120.035 98.6096 120.323 98.9694 120.323C99.2716 120.323 99.6457 120.15 100.092 119.805C100.552 119.46 100.783 119.157 100.783 118.898V118.272C100.783 118.028 100.689 117.826 100.502 117.668C100.329 117.51 100.07 117.359 99.7248 117.215L97.3505 116.287C96.2568 115.869 95.71 115.243 95.71 114.409V113.48C95.71 112.905 96.1345 112.301 96.9835 111.667C97.8469 111.02 98.5664 110.696 99.142 110.696C99.7896 110.696 100.732 111.005 101.97 111.624C102.07 111.667 102.142 111.746 102.186 111.862C102.229 111.962 102.222 112.07 102.164 112.185L101.948 112.768C101.819 113.042 101.603 113.099 101.301 112.941C100.164 112.452 99.4442 112.207 99.142 112.207Z" fill="white"/>
<path d="M105.389 112.315H103.986C103.87 112.315 103.777 112.279 103.705 112.207C103.633 112.121 103.597 112.027 103.597 111.926V111.257C103.597 111.142 103.633 111.049 103.705 110.977C103.777 110.905 103.87 110.869 103.986 110.869H105.389V108.602C105.389 108.343 105.518 108.214 105.777 108.214H106.641C106.9 108.214 107.029 108.343 107.029 108.602V110.869H109.188C109.447 110.869 109.576 110.998 109.576 111.257V111.926C109.576 112.027 109.533 112.121 109.447 112.207C109.375 112.279 109.288 112.315 109.188 112.315H107.029V119.244C107.029 119.474 107.173 119.711 107.461 119.956C107.763 120.201 108.015 120.323 108.216 120.323C108.403 120.323 108.705 120.258 109.123 120.129C109.396 120.086 109.554 120.193 109.598 120.452L109.706 121.057C109.749 121.301 109.641 121.467 109.382 121.553C108.864 121.74 108.425 121.834 108.065 121.834C107.547 121.834 106.971 121.582 106.338 121.078C105.705 120.56 105.389 120.028 105.389 119.481V112.315Z" fill="white"/>
<path d="M118.797 113.696V116.114C118.797 116.243 118.71 116.394 118.538 116.567C118.379 116.725 118.221 116.805 118.063 116.805H113.249V118.618C113.249 118.992 113.487 119.373 113.962 119.762C114.436 120.136 114.854 120.323 115.213 120.323C115.717 120.323 116.465 120.014 117.458 119.395C117.761 119.251 117.976 119.301 118.106 119.546L118.365 120.086C118.48 120.33 118.43 120.517 118.214 120.647C117.005 121.438 116.005 121.834 115.213 121.834C114.537 121.834 113.767 121.503 112.904 120.841C112.04 120.179 111.609 119.51 111.609 118.834V113.718C111.609 113.042 112.048 112.372 112.925 111.711C113.803 111.034 114.566 110.696 115.213 110.696C115.861 110.696 116.617 111.027 117.48 111.689C118.358 112.351 118.797 113.02 118.797 113.696ZM116.465 112.79C115.991 112.401 115.573 112.207 115.213 112.207C114.854 112.207 114.436 112.401 113.962 112.79C113.487 113.164 113.249 113.538 113.249 113.912V115.488H117.178V113.891C117.178 113.531 116.94 113.164 116.465 112.79Z" fill="white"/>
<path d="M126.68 121.273V113.826C126.68 113.48 126.45 113.128 125.989 112.768C125.543 112.394 125.169 112.207 124.867 112.207C124.565 112.207 124.183 112.394 123.723 112.768C123.277 113.128 123.054 113.48 123.054 113.826V121.273C123.054 121.388 123.018 121.481 122.946 121.553C122.874 121.625 122.78 121.661 122.665 121.661H121.802C121.543 121.661 121.413 121.532 121.413 121.273V113.588C121.413 112.97 121.83 112.336 122.665 111.689C123.5 111.027 124.226 110.696 124.845 110.696C125.248 110.696 125.701 110.862 126.205 111.192C126.723 111.509 127.155 111.869 127.5 112.272C127.845 111.869 128.277 111.509 128.795 111.192C129.313 110.862 129.767 110.696 130.155 110.696C130.788 110.696 131.522 111.027 132.357 111.689C133.191 112.336 133.609 112.97 133.609 113.588V121.273C133.609 121.388 133.566 121.481 133.479 121.553C133.407 121.625 133.321 121.661 133.22 121.661H132.357C132.098 121.661 131.968 121.532 131.968 121.273V113.826C131.968 113.48 131.738 113.128 131.278 112.768C130.831 112.394 130.45 112.207 130.134 112.207C129.831 112.207 129.45 112.394 128.99 112.768C128.543 113.128 128.32 113.48 128.32 113.826V121.273C128.32 121.532 128.191 121.661 127.932 121.661H127.068C126.953 121.661 126.86 121.625 126.788 121.553C126.716 121.481 126.68 121.388 126.68 121.273Z" fill="white"/>
</svg>
