<svg width="156" height="77" viewBox="0 0 156 77" fill="none" xmlns="http://www.w3.org/2000/svg">
<path d="M26.674 76L5.204 76.113C3.92333 76.113 2.86867 75.7363 2.04 74.983C1.136 74.1543 0.684 73.1373 0.684 71.932V6.731C0.684 5.22433 1.249 4.019 2.379 3.115C3.509 2.211 4.82733 1.759 6.334 1.759H25.205C29.6497 1.759 33.9437 4.245 38.087 9.217C42.2303 14.1137 44.302 18.7467 44.302 23.116C44.302 25.828 43.398 28.5777 41.59 31.365C39.7067 34.2277 37.635 36.6007 35.375 38.484C38.1623 40.292 40.6483 42.7403 42.833 45.829C45.0177 48.9177 46.11 51.7427 46.11 54.304C46.11 58.824 44.076 63.57 40.008 68.542C35.94 73.514 31.4953 76 26.674 76ZM32.55 54.417H32.663C32.663 52.5337 31.646 50.3867 29.612 47.976C27.578 45.5653 25.6193 44.36 23.736 44.36H14.131V64.813H23.849C25.7323 64.813 27.6533 63.6077 29.612 61.197C31.5707 58.7863 32.55 56.5263 32.55 54.417ZM31.081 23.342L31.194 23.568C31.194 21.6093 30.29 19.4623 28.482 17.127C26.674 14.7917 24.8283 13.624 22.945 13.624H14.244V33.286H22.719C24.6777 33.286 26.561 32.1183 28.369 29.783C30.177 27.4477 31.081 25.3007 31.081 23.342ZM72.0735 44.247L72.2995 64.361H93.9955C94.7489 64.361 95.4269 64.6623 96.0295 65.265C96.6322 65.8677 96.9335 66.5457 96.9335 67.299V73.175C96.9335 73.9283 96.6322 74.6063 96.0295 75.209C95.5022 75.7363 94.8242 76 93.9955 76H65.1805C63.8998 76 62.5062 75.2467 60.9995 73.74C59.4175 72.158 58.6265 70.8397 58.6265 69.785V7.86099C58.6265 6.731 59.4175 5.41266 60.9995 3.906C62.6568 2.39933 64.0128 1.64599 65.0675 1.64599H93.7695C94.5229 1.64599 95.2009 1.94733 95.8035 2.55C96.4062 3.15266 96.7075 3.83066 96.7075 4.584V10.46C96.7075 11.2133 96.4062 11.8913 95.8035 12.494C95.2009 13.0967 94.5229 13.398 93.7695 13.398H72.0735V32.382H90.6055C91.3589 32.382 92.0369 32.6833 92.6395 33.286C93.2422 33.8887 93.5435 34.5667 93.5435 35.32V41.309C93.5435 42.0623 93.2422 42.7403 92.6395 43.343C92.0369 43.9457 91.3589 44.247 90.6055 44.247H72.0735ZM141.577 51.027L122.48 51.14V73.175C122.48 74.0037 122.217 74.6817 121.689 75.209C121.162 75.7363 120.446 76 119.542 76H112.197C111.519 76 110.804 75.6987 110.05 75.096C109.372 74.4933 109.033 73.8153 109.033 73.062V19.839C109.033 16.0723 111.858 11.929 117.508 7.40899C123.158 2.88899 127.98 0.628994 131.972 0.628994C136.04 0.628994 140.899 2.88899 146.549 7.40899C152.199 11.929 155.024 16.11 155.024 19.952V73.175C155.024 73.9283 154.723 74.6063 154.12 75.209C153.593 75.7363 152.915 76 152.086 76H144.402C143.649 76 142.971 75.6987 142.368 75.096C141.841 74.5687 141.577 73.8907 141.577 73.062V51.027ZM122.48 21.873L122.254 39.275H140.899V21.873C140.899 20.2157 139.769 18.37 137.509 16.336C135.249 14.302 133.291 13.285 131.633 13.285C130.051 13.285 128.13 14.302 125.87 16.336C123.61 18.37 122.48 20.2157 122.48 21.873Z" fill="white"/>
</svg>
